<?xml version="1.0" encoding="UTF-8"?> <!-- Generator: Adobe Illustrator 24.2.0, SVG Export Plug-In . SVG Version: 6.00 Build 0) --> <svg xmlns="http://www.w3.org/2000/svg" xmlns:xlink="http://www.w3.org/1999/xlink" version="1.1" id="Layer_1" x="0px" y="0px" viewBox="0 0 434.74 123.52" style="enable-background:new 0 0 434.74 123.52;" xml:space="preserve"> <style type="text/css"> .st0{fill:#FFFFFF;} </style> <g> <g id="XMLID_120_"> <g> <path id="XMLID_37_" class="st0" d="M400.85,41.49c0-4.49,3.5-7.72,7.74-7.72c4.32,0,7.88,3.23,7.88,7.72 c0,4.42-3.57,7.68-7.88,7.68C404.35,49.17,400.85,45.91,400.85,41.49z M415.05,41.49c0-3.91-2.75-6.46-6.46-6.46 c-3.64,0-6.28,2.55-6.28,6.46c0,3.88,2.64,6.43,6.28,6.43C412.31,47.92,415.05,45.37,415.05,41.49z M412.09,45.69h-1.71 l-1.39-2.12c-0.14,0.04-0.32,0.04-0.5,0.04h-1.07v2.08h-1.57v-8.51h2.61c2.46,0,3.64,1.51,3.64,3.23c0,1.15-0.57,2.23-1.68,2.76 L412.09,45.69z M408.45,42.35c1.46,0,2.07-0.72,2.07-1.9c0-1.15-0.61-1.94-2.07-1.94h-1.04v3.84H408.45z"></path> </g> </g> <path class="st0" d="M56.09,96.45v10.56c0,1.13-0.92,2.05-2.04,2.05c-1.13,0-2.05-0.92-2.05-2.05V96.45c0-3.05-2.47-5.51-5.51-5.51 c-3.04,0-5.51,2.46-5.51,5.51v10.56c0,1.13-0.91,2.05-2.04,2.05c-1.13,0-2.05-0.92-2.05-2.05V96.45c0-3.05-2.47-5.51-5.51-5.51 c-3.04,0-5.51,2.46-5.51,5.51v10.56c0,1.13-0.92,2.05-2.05,2.05c-1.13,0-2.05-0.92-2.05-2.05v-5.5h-3.51v5.5 c0,3.07,2.49,5.56,5.56,5.56c3.07,0,5.55-2.49,5.55-5.56V96.45c0-1.11,0.9-2,2-2c1.1,0,2,0.9,2,2v10.56c0,3.07,2.49,5.56,5.57,5.56 c3.06,0,5.55-2.49,5.55-5.56V96.45c0-1.11,0.9-2,2-2c1.1,0,2,0.9,2,2v10.56c0,3.07,2.49,5.56,5.56,5.56c3.06,0,5.56-2.49,5.56-5.56 V96.45c0-1.11,0.89-2,2-2c1.1,0,2,0.9,2,2v2.88c0,3.78,3.06,6.83,6.83,6.83h285.99v-3.51H70.44c-1.83,0-3.33-1.49-3.33-3.32v-2.88 c0-3.05-2.47-5.51-5.5-5.51C58.56,90.94,56.09,93.4,56.09,96.45"></path> <path class="st0" d="M94.17,90.34c10.53,0,19.46-4.35,24.81-12.08l-2.77-1.96c-4.82,6.84-12.67,10.76-22.05,10.76 c-15.62,0-27.31-11.82-27.31-27.64c0-15.82,11.69-27.65,27.31-27.65c9.64,0,16.87,3.92,21.34,10.23l2.77-2.05 c-5.09-7.38-13.48-11.46-24.1-11.46c-17.14,0-31.05,12.53-31.05,30.93C63.12,77.81,77.03,90.34,94.17,90.34"></path> <path class="st0" d="M140.6,90.28c10.67,0,18.92-8.55,18.92-18.97c0-10.42-8.25-18.88-18.92-18.88c-10.67,0-19.11,8.46-19.11,18.88 C121.49,81.72,129.93,90.28,140.6,90.28 M140.6,87.16c-9.15,0-15.52-6.86-15.52-15.85c0-9,6.37-15.77,15.52-15.77 c9.15,0,15.34,6.77,15.34,15.77C155.95,80.3,149.75,87.16,140.6,87.16"></path> <path class="st0" d="M181.58,90.28c10.67,0,18.92-8.55,18.92-18.97c0-10.42-8.26-18.88-18.92-18.88c-10.68,0-19.1,8.46-19.1,18.88 C162.48,81.72,170.9,90.28,181.58,90.28 M181.58,87.16c-9.15,0-15.52-6.86-15.52-15.85c0-9,6.37-15.77,15.52-15.77 c9.15,0,15.33,6.77,15.33,15.77C196.92,80.3,190.73,87.16,181.58,87.16"></path> <polygon class="st0" points="205.54,89.52 205.54,28.35 211.98,28.35 211.98,83.76 240.66,83.76 240.66,89.52 "></polygon> <path class="st0" d="M249.77,41.47c-2.32,0-4.46-1.8-4.46-4.4c0-2.61,2.14-4.5,4.46-4.5c2.32,0,4.47,1.89,4.47,4.5 C254.24,39.67,252.09,41.47,249.77,41.47"></path> <rect x="246.64" y="52.27" class="st0" width="6.26" height="37.25"></rect> <path class="st0" d="M279.8,31.67c-1.17-1.54-2.23-2.61-4.74-2.61c-2.68,0-4.56,1.53-4.56,6.29v16.92h9.93v5.3h-9.93v31.95h-6.25 V57.57h-5.98v-5.3h5.98V35.35c0-8.36,4.2-11.96,10.28-11.96c4.55,0,7.5,1.8,9.38,4.58L279.8,31.67z"></path> <path class="st0" d="M294.53,78.36c0,4.95,1.7,6.47,4.38,6.47c2.5,0,3.84-1.08,5-2.15l3.4,3.96c-1.61,1.71-4.47,3.69-9.02,3.69 c-5.64,0-9.92-3.25-9.92-12.07V57.57h-5.72v-5.3h5.72V32.84h6.17v19.43h10.36v5.3h-10.36V78.36z"></path> <path class="st0" d="M315.09,41.47c-2.33,0-4.47-1.8-4.47-4.4c0-2.61,2.14-4.5,4.47-4.5c2.32,0,4.46,1.89,4.46,4.5 C319.55,39.67,317.41,41.47,315.09,41.47"></path> <rect x="311.96" y="52.27" class="st0" width="6.26" height="37.25"></rect> <path class="st0" d="M354.14,89.52V67.56c0-6.56-3.04-10.34-9.2-10.34c-6.89,0-11.53,4.41-11.53,11.78v20.51h-6.26V52.27h6.26 l-0.18,7.65c2.41-5.31,7.33-8.46,13.32-8.46c8.22,0,13.85,5.67,13.85,15.39v22.67H354.14z"></path> <path class="st0" d="M386.39,84.57l-9.47-0.72c-3.14-0.18-4.83-1.35-4.83-3.78c0-1.8,1.07-3.24,3.04-3.78 c2.14,1.17,4.74,1.71,7.6,1.71c8.57,0,14.39-5.67,14.39-13.32c0-3.05-1.07-5.67-2.95-7.65h7.24v-4.76H388 c-1.61-0.54-3.4-0.82-5.27-0.82c-8.58,0-14.75,5.49-14.75,13.23c0,3.69,1.43,6.93,4.02,9.18c-3.12,1.26-5.1,3.69-5.1,6.84 c0,3.24,1.7,5.76,5.19,6.93c-5.19,1.62-8.76,4.59-8.76,9.71c0,7.47,7.06,12.24,18.94,12.24c12.25,0,19.66-5.13,19.66-13.23 C401.94,89.25,396.94,85.38,386.39,84.57 M382.64,56.32c5.55,0,8.85,3.33,8.85,8.37c0,5.04-3.31,8.46-8.85,8.46 c-5.63,0-8.94-3.43-8.94-8.46C373.7,59.65,377.01,56.32,382.64,56.32 M382.28,104.54c-8.58,0-12.78-2.78-12.78-7.74 c0-3.78,2.59-6.12,6.52-7.28l9.3,0.63c7.87,0.54,10.28,2.34,10.28,6.48C395.6,101.66,390.6,104.54,382.28,104.54"></path> </g> </svg> 