<svg width="685.4" height="97.2" viewBox="0 0 685.4 97.2" xmlns="http://www.w3.org/2000/svg"><g id="svgGroup" stroke-linecap="round" fill-rule="evenodd" font-size="9pt" fill="#6b4d5d"><path d="M 508.9 27 L 525 27 A 272.821 272.821 0 0 0 527.846 26.986 Q 530.088 26.963 531.9 26.9 A 84.717 84.717 0 0 0 534.569 26.768 Q 535.83 26.684 536.952 26.566 A 50.682 50.682 0 0 0 537.1 26.55 Q 539.4 26.3 541.6 25.8 L 541.6 69.1 Q 541.6 72.604 542.819 74.229 A 3.565 3.565 0 0 0 543.35 74.8 Q 544.945 76.167 548.492 76.288 A 20.755 20.755 0 0 0 549.2 76.3 L 549.2 78.4 Q 547.504 78.3 544.066 78.151 A 3336.726 3336.726 0 0 1 544.05 78.15 Q 540.6 78 537.1 78 Q 533.7 78 530.2 78.15 Q 526.732 78.299 525.031 78.398 A 106.153 106.153 0 0 0 525 78.4 L 525 76.3 Q 528.542 76.3 530.33 75.181 A 4.317 4.317 0 0 0 530.85 74.8 Q 532.426 73.449 532.583 69.909 A 18.297 18.297 0 0 0 532.6 69.1 L 532.6 37.8 A 20.211 20.211 0 0 0 532.474 35.455 Q 532.15 32.695 531 31.15 Q 529.443 29.057 525.231 29.002 A 17.559 17.559 0 0 0 525 29 L 508.9 29 L 508.9 69.1 Q 508.9 73.4 511.2 74.85 Q 512.958 75.958 515.71 76.219 A 18.973 18.973 0 0 0 517.5 76.3 L 517.5 78.4 Q 515.969 78.323 513.471 78.218 A 1272.897 1272.897 0 0 0 511.85 78.15 Q 508.2 78 504.4 78 Q 500.7 78 497.35 78.15 Q 494 78.3 492.3 78.4 L 492.3 76.3 Q 495.842 76.3 497.63 75.181 A 4.317 4.317 0 0 0 498.15 74.8 Q 499.726 73.449 499.883 69.909 A 18.297 18.297 0 0 0 499.9 69.1 L 499.9 29 L 491.9 29 L 491.9 27 L 499.9 27 Q 499.9 20.6 501.55 15.5 Q 503.2 10.4 507.1 6.7 A 20.98 20.98 0 0 1 510.543 4.128 Q 512.144 3.159 514.05 2.333 A 34.867 34.867 0 0 1 514.6 2.1 Q 518.587 0.453 524.076 0.234 A 43.155 43.155 0 0 1 525.8 0.2 A 38.38 38.38 0 0 1 530.303 0.453 A 30.317 30.317 0 0 1 533.5 1 Q 536.249 1.628 538.195 2.626 A 12.457 12.457 0 0 1 539.2 3.2 A 9.12 9.12 0 0 1 540.664 4.324 A 7.239 7.239 0 0 1 541.7 5.55 A 5.368 5.368 0 0 1 542.571 8.068 A 6.75 6.75 0 0 1 542.6 8.7 Q 542.6 11.4 540.7 13.3 A 6.465 6.465 0 0 1 538.485 14.782 A 6.201 6.201 0 0 1 536.2 15.2 A 6.138 6.138 0 0 1 531.76 13.359 A 7.796 7.796 0 0 1 531.7 13.3 A 6.465 6.465 0 0 1 530.218 11.085 A 6.201 6.201 0 0 1 529.8 8.8 A 6.837 6.837 0 0 1 530.227 6.327 Q 530.986 4.353 533.1 3.2 Q 531.8 2.4 529.8 2.05 Q 527.8 1.7 525.8 1.7 A 21.3 21.3 0 0 0 521.927 2.033 Q 519.206 2.537 517.1 3.8 Q 513.6 5.9 511.6 9.4 A 14.935 14.935 0 0 0 510.553 11.759 Q 509.926 13.545 509.55 15.8 A 36.776 36.776 0 0 0 509.222 18.415 Q 508.9 21.867 508.9 27 Z M 435.5 42.4 L 435.5 69.1 Q 435.5 72.604 436.719 74.229 A 3.565 3.565 0 0 0 437.25 74.8 Q 438.845 76.167 442.392 76.288 A 20.755 20.755 0 0 0 443.1 76.3 L 443.1 78.4 Q 441.416 78.301 437.963 78.153 A 902.368 902.368 0 0 0 437.9 78.15 A 159.797 159.797 0 0 0 431.514 78.001 A 146.011 146.011 0 0 0 431.1 78 Q 427.8 78 424.65 78.15 Q 421.5 78.3 419.9 78.4 L 419.9 76.3 Q 423.148 76.3 424.687 75.079 A 3.662 3.662 0 0 0 425 74.8 A 3.952 3.952 0 0 0 425.823 73.525 Q 426.5 71.922 426.5 69.1 L 426.5 40.2 A 33.559 33.559 0 0 0 426.342 36.871 A 26.473 26.473 0 0 0 426 34.5 A 8.279 8.279 0 0 0 425.223 32.216 A 6.913 6.913 0 0 0 423.75 30.3 Q 422.432 29.094 420.062 28.797 A 13.382 13.382 0 0 0 418.4 28.7 A 11.807 11.807 0 0 0 409.316 32.648 A 15.378 15.378 0 0 0 408.25 33.95 A 19.596 19.596 0 0 0 404.786 42.273 A 26.691 26.691 0 0 0 404.4 46.9 L 404.4 69.1 Q 404.4 72.423 405.339 74.056 A 3.54 3.54 0 0 0 405.9 74.8 Q 407.334 76.233 410.684 76.297 A 16.619 16.619 0 0 0 411 76.3 L 411 78.4 Q 409.775 78.323 407.642 78.218 A 699.179 699.179 0 0 0 406.25 78.15 Q 403.1 78 399.8 78 A 158.016 158.016 0 0 0 393.437 78.132 A 172.733 172.733 0 0 0 393 78.15 Q 389.5 78.3 387.8 78.4 L 387.8 76.3 Q 391.342 76.3 393.13 75.181 A 4.317 4.317 0 0 0 393.65 74.8 Q 395.226 73.449 395.383 69.909 A 18.297 18.297 0 0 0 395.4 69.1 L 395.4 37.8 A 20.211 20.211 0 0 0 395.274 35.455 Q 394.95 32.695 393.8 31.15 Q 392.243 29.057 388.031 29.002 A 17.559 17.559 0 0 0 387.8 29 L 387.8 26.9 A 67.314 67.314 0 0 0 393.247 27.195 A 60.756 60.756 0 0 0 394 27.2 Q 396.9 27.2 399.55 26.85 A 31.037 31.037 0 0 0 402.389 26.346 A 24.902 24.902 0 0 0 404.4 25.8 L 404.4 37.6 Q 406.34 32.529 409.419 29.766 A 12.904 12.904 0 0 1 411.65 28.15 Q 416.3 25.5 421.4 25.5 Q 424.31 25.5 426.487 26.086 A 12.027 12.027 0 0 1 427.75 26.5 Q 430.3 27.5 432 29.3 Q 433.9 31.3 434.7 34.3 Q 435.5 37.3 435.5 42.4 Z M 295.9 42.4 L 295.9 69.1 Q 295.9 72.604 297.119 74.229 A 3.565 3.565 0 0 0 297.65 74.8 Q 299.245 76.167 302.792 76.288 A 20.755 20.755 0 0 0 303.5 76.3 L 303.5 78.4 Q 301.816 78.301 298.363 78.153 A 902.368 902.368 0 0 0 298.3 78.15 A 159.797 159.797 0 0 0 291.914 78.001 A 146.011 146.011 0 0 0 291.5 78 Q 288.2 78 285.05 78.15 Q 281.9 78.3 280.3 78.4 L 280.3 76.3 Q 283.548 76.3 285.087 75.079 A 3.662 3.662 0 0 0 285.4 74.8 A 3.952 3.952 0 0 0 286.223 73.525 Q 286.9 71.922 286.9 69.1 L 286.9 40.2 A 41.908 41.908 0 0 0 286.775 36.882 A 32.737 32.737 0 0 0 286.5 34.5 A 8.607 8.607 0 0 0 285.921 32.416 A 6.668 6.668 0 0 0 284.5 30.3 Q 282.9 28.7 279.3 28.7 Q 275.4 28.7 272.35 31.1 A 14.94 14.94 0 0 0 268.788 35.199 A 19.334 19.334 0 0 0 267.55 37.65 Q 265.8 41.8 265.8 46.9 L 265.8 69.1 Q 265.8 72.423 266.739 74.056 A 3.54 3.54 0 0 0 267.3 74.8 Q 268.734 76.233 272.084 76.297 A 16.619 16.619 0 0 0 272.4 76.3 L 272.4 78.4 Q 271.175 78.323 269.042 78.218 A 699.179 699.179 0 0 0 267.65 78.15 Q 264.5 78 261.2 78 A 158.016 158.016 0 0 0 254.837 78.132 A 172.733 172.733 0 0 0 254.4 78.15 Q 250.9 78.3 249.2 78.4 L 249.2 76.3 Q 252.742 76.3 254.53 75.181 A 4.317 4.317 0 0 0 255.05 74.8 Q 256.626 73.449 256.783 69.909 A 18.297 18.297 0 0 0 256.8 69.1 L 256.8 37.8 A 20.211 20.211 0 0 0 256.674 35.455 Q 256.35 32.695 255.2 31.15 Q 253.643 29.057 249.431 29.002 A 17.559 17.559 0 0 0 249.2 29 L 249.2 26.9 A 67.314 67.314 0 0 0 254.647 27.195 A 60.756 60.756 0 0 0 255.4 27.2 Q 258.3 27.2 260.95 26.85 A 31.037 31.037 0 0 0 263.789 26.346 A 24.902 24.902 0 0 0 265.8 25.8 L 265.8 37.6 Q 268.4 31.1 272.9 28.3 A 18.841 18.841 0 0 1 277.912 26.075 A 16.267 16.267 0 0 1 282.2 25.5 A 20.739 20.739 0 0 1 285.091 25.691 Q 286.838 25.938 288.3 26.5 A 12.49 12.49 0 0 1 290.941 27.878 A 10.486 10.486 0 0 1 292.6 29.3 A 9.735 9.735 0 0 1 294.56 32.398 A 13.056 13.056 0 0 1 295.2 34.5 A 26.662 26.662 0 0 1 295.627 37.111 Q 295.794 38.544 295.859 40.194 A 56.034 56.034 0 0 1 295.9 42.4 Z M 167.3 47.5 L 132 47.5 L 131.9 45.6 L 157.7 45.6 A 39.541 39.541 0 0 0 157.734 43.987 Q 157.734 40.008 156.9 36.55 Q 155.9 32.4 153.75 29.9 A 6.914 6.914 0 0 0 148.724 27.415 A 8.868 8.868 0 0 0 148.2 27.4 Q 143.696 27.4 140.198 31.811 A 18.243 18.243 0 0 0 140.05 32 Q 136.5 36.6 135.8 46.6 L 136.1 47 Q 135.9 48.5 135.8 50.3 Q 135.7 52.1 135.7 53.9 Q 135.7 60.178 137.576 64.836 A 21.103 21.103 0 0 0 137.9 65.6 A 21.979 21.979 0 0 0 139.997 69.316 A 15.751 15.751 0 0 0 143.65 73.05 A 14.386 14.386 0 0 0 146.919 74.837 A 11.386 11.386 0 0 0 151 75.6 Q 155.5 75.6 159.3 73.4 A 12.727 12.727 0 0 0 162.549 70.649 Q 163.697 69.317 164.696 67.559 A 26.938 26.938 0 0 0 165.7 65.6 L 167.7 66.4 A 19.252 19.252 0 0 1 165.59 70.744 A 23.943 23.943 0 0 1 164.1 72.8 Q 161.6 75.9 157.8 77.85 A 17.509 17.509 0 0 1 152.298 79.569 A 22.783 22.783 0 0 1 149 79.8 A 26.268 26.268 0 0 1 142.896 79.122 A 20.138 20.138 0 0 1 136.65 76.5 Q 131.5 73.2 128.75 67.35 A 28.542 28.542 0 0 1 126.387 59.354 A 37.111 37.111 0 0 1 126 53.9 A 46.365 46.365 0 0 1 126.517 46.79 Q 127.204 42.371 128.8 38.75 A 24.854 24.854 0 0 1 132.268 33.011 A 20.633 20.633 0 0 1 136.7 28.95 A 20.136 20.136 0 0 1 146.415 25.593 A 25.268 25.268 0 0 1 148.6 25.5 A 23.24 23.24 0 0 1 154.37 26.176 A 16.025 16.025 0 0 1 162.35 30.85 Q 166.004 34.798 166.961 41.988 A 41.868 41.868 0 0 1 167.3 47.5 Z M 597.1 47.5 L 561.8 47.5 L 561.7 45.6 L 587.5 45.6 A 39.541 39.541 0 0 0 587.534 43.987 Q 587.534 40.008 586.7 36.55 Q 585.7 32.4 583.55 29.9 A 6.914 6.914 0 0 0 578.524 27.415 A 8.868 8.868 0 0 0 578 27.4 Q 573.496 27.4 569.998 31.811 A 18.243 18.243 0 0 0 569.85 32 Q 566.3 36.6 565.6 46.6 L 565.9 47 Q 565.7 48.5 565.6 50.3 Q 565.5 52.1 565.5 53.9 Q 565.5 60.178 567.376 64.836 A 21.103 21.103 0 0 0 567.7 65.6 A 21.979 21.979 0 0 0 569.797 69.316 A 15.751 15.751 0 0 0 573.45 73.05 A 14.386 14.386 0 0 0 576.719 74.837 A 11.386 11.386 0 0 0 580.8 75.6 Q 585.3 75.6 589.1 73.4 A 12.727 12.727 0 0 0 592.349 70.649 Q 593.497 69.317 594.496 67.559 A 26.938 26.938 0 0 0 595.5 65.6 L 597.5 66.4 A 19.252 19.252 0 0 1 595.39 70.744 A 23.943 23.943 0 0 1 593.9 72.8 Q 591.4 75.9 587.6 77.85 A 17.509 17.509 0 0 1 582.098 79.569 A 22.783 22.783 0 0 1 578.8 79.8 A 26.268 26.268 0 0 1 572.696 79.122 A 20.138 20.138 0 0 1 566.45 76.5 Q 561.3 73.2 558.55 67.35 A 28.542 28.542 0 0 1 556.187 59.354 A 37.111 37.111 0 0 1 555.8 53.9 A 46.365 46.365 0 0 1 556.317 46.79 Q 557.004 42.371 558.6 38.75 A 24.854 24.854 0 0 1 562.068 33.011 A 20.633 20.633 0 0 1 566.5 28.95 A 20.136 20.136 0 0 1 576.215 25.593 A 25.268 25.268 0 0 1 578.4 25.5 A 23.24 23.24 0 0 1 584.17 26.176 A 16.025 16.025 0 0 1 592.15 30.85 Q 595.804 34.798 596.761 41.988 A 41.868 41.868 0 0 1 597.1 47.5 Z M 480.3 25.6 L 482.6 25.6 A 110.35 110.35 0 0 0 482.465 27.848 Q 482.363 29.844 482.3 32.25 A 224.715 224.715 0 0 0 482.257 34.341 Q 482.218 36.667 482.206 39.699 A 729.123 729.123 0 0 0 482.2 42.6 L 479.9 42.6 Q 479.3 38.9 477.85 35.4 A 14.398 14.398 0 0 0 474.603 30.538 A 13.937 13.937 0 0 0 473.6 29.65 A 9.852 9.852 0 0 0 469.617 27.757 Q 468.189 27.422 466.524 27.401 A 17.749 17.749 0 0 0 466.3 27.4 A 10.362 10.362 0 0 0 463.482 27.767 A 8.152 8.152 0 0 0 460.45 29.35 A 6.26 6.26 0 0 0 458.354 32.805 A 9.77 9.77 0 0 0 458.1 35.1 A 8.342 8.342 0 0 0 458.594 38.008 A 7.533 7.533 0 0 0 459.9 40.25 Q 461.7 42.4 464.6 44.25 Q 467.5 46.1 470.9 48.3 Q 476.6 52 480.6 55.8 A 12.667 12.667 0 0 1 484.493 63.83 A 17.535 17.535 0 0 1 484.6 65.8 A 14.583 14.583 0 0 1 484.173 69.414 A 11.062 11.062 0 0 1 482.2 73.5 A 14.937 14.937 0 0 1 476.308 78.047 A 17.679 17.679 0 0 1 475.95 78.2 A 21.077 21.077 0 0 1 469.477 79.723 A 25.124 25.124 0 0 1 467.5 79.8 A 24.673 24.673 0 0 1 464.594 79.635 A 21.123 21.123 0 0 1 463.35 79.45 Q 461.4 79.1 459.6 78.4 A 17.885 17.885 0 0 1 458.331 77.697 A 21.455 21.455 0 0 1 457.55 77.2 Q 456.5 76.5 455.5 75.7 Q 454.526 74.92 453.741 75.708 A 2.063 2.063 0 0 0 453.7 75.75 Q 452.9 76.6 452.5 79.1 L 450.2 79.1 A 138.748 138.748 0 0 0 450.336 76.503 Q 450.438 74.175 450.5 71.3 Q 450.59 67.185 450.599 60.67 A 1084.4 1084.4 0 0 0 450.6 59.1 L 452.9 59.1 A 70.879 70.879 0 0 0 453.628 63.732 Q 454.169 66.538 454.9 68.9 A 16.244 16.244 0 0 0 456.31 72.194 A 11.998 11.998 0 0 0 459 75.45 Q 461.8 77.8 466.8 77.8 Q 469.8 77.8 472.75 75.7 A 6.377 6.377 0 0 0 475.008 72.684 Q 475.7 70.867 475.7 68.3 A 9.836 9.836 0 0 0 474.997 64.527 A 9.147 9.147 0 0 0 472.5 61.1 A 49.724 49.724 0 0 0 469.62 58.775 Q 468.032 57.583 466.16 56.34 A 94.936 94.936 0 0 0 464.4 55.2 Q 460.8 52.9 457.65 50.6 A 22.313 22.313 0 0 1 454.182 47.491 A 19.032 19.032 0 0 1 452.55 45.4 A 11.329 11.329 0 0 1 450.792 40.849 A 15.134 15.134 0 0 1 450.6 38.4 A 16.179 16.179 0 0 1 450.889 35.257 Q 451.369 32.831 452.65 31.05 Q 454.7 28.2 458.1 26.85 A 19.455 19.455 0 0 1 464.885 25.506 A 22.252 22.252 0 0 1 465.4 25.5 A 20.546 20.546 0 0 1 468.452 25.715 Q 470.082 25.96 471.453 26.484 A 11.731 11.731 0 0 1 472.2 26.8 Q 475 28.1 476.3 29.2 Q 479.463 31.788 480.238 26.108 A 20.601 20.601 0 0 0 480.3 25.6 Z M 220.4 26.9 L 220.4 28.9 A 5.644 5.644 0 0 0 217.719 29.931 A 7.479 7.479 0 0 0 216.9 30.6 Q 215.499 31.914 214.251 34.992 A 30.274 30.274 0 0 0 213.9 35.9 L 197.5 78.9 L 195.8 78.9 L 177.4 34.6 A 22.942 22.942 0 0 0 176.483 32.89 Q 175.505 31.252 174.54 30.433 A 3.91 3.91 0 0 0 173.65 29.85 A 13.375 13.375 0 0 0 172.609 29.42 Q 171.567 29.044 170.782 29.005 A 3.6 3.6 0 0 0 170.6 29 L 170.6 26.9 Q 172.8 27.2 175.2 27.35 Q 177.6 27.5 180.4 27.5 A 107.776 107.776 0 0 0 184.828 27.405 A 126.725 126.725 0 0 0 186.95 27.3 Q 190.4 27.1 193.4 26.9 L 193.4 29 A 30.513 30.513 0 0 0 191.178 29.077 Q 190.135 29.153 189.212 29.305 A 18.206 18.206 0 0 0 188.95 29.35 A 3.711 3.711 0 0 0 187.876 29.704 Q 186.845 30.245 186.5 31.45 A 2.912 2.912 0 0 0 186.406 31.967 Q 186.261 33.451 187.235 36.181 A 31.241 31.241 0 0 0 187.7 37.4 L 200 67.9 L 199.4 68.1 L 210.8 38.3 Q 212.666 33.392 211.255 31.375 A 2.778 2.778 0 0 0 211.2 31.3 Q 209.7 29.3 204.4 28.9 L 204.4 26.9 Q 207 27 208.75 27.1 Q 210.254 27.186 212.164 27.198 A 100.544 100.544 0 0 0 212.8 27.2 A 91.094 91.094 0 0 0 214.972 27.175 Q 216.002 27.151 216.921 27.102 A 56.886 56.886 0 0 0 216.95 27.1 Q 218.8 27 220.4 26.9 Z M 76 43.8 L 76 37.6 A 22.713 22.713 0 0 0 75.89 35.283 Q 75.648 32.925 74.871 31.422 A 6.381 6.381 0 0 0 74.75 31.2 A 7.244 7.244 0 0 0 73.497 29.556 A 5.785 5.785 0 0 0 71.4 28.25 A 12.75 12.75 0 0 0 68.58 27.605 A 16.231 16.231 0 0 0 66.7 27.5 A 20.389 20.389 0 0 0 63.608 27.747 A 26.027 26.027 0 0 0 61.35 28.2 A 8.359 8.359 0 0 0 58.44 29.511 A 7.841 7.841 0 0 0 56.8 31.1 A 5.814 5.814 0 0 1 59.72 32.696 A 7.358 7.358 0 0 1 60.1 33.1 A 5.567 5.567 0 0 1 61.39 35.865 A 7.729 7.729 0 0 1 61.5 37.2 A 6.288 6.288 0 0 1 61.276 38.926 A 4.664 4.664 0 0 1 59.9 41.15 A 5.525 5.525 0 0 1 56.959 42.515 A 7.611 7.611 0 0 1 55.8 42.6 A 7.158 7.158 0 0 1 54.158 42.424 Q 53.02 42.156 52.224 41.479 A 4.21 4.21 0 0 1 51.55 40.75 Q 50.2 38.9 50.2 36.6 A 8.468 8.468 0 0 1 50.38 34.808 Q 50.636 33.625 51.258 32.724 A 5.182 5.182 0 0 1 51.5 32.4 Q 52.8 30.8 54.8 29.4 A 16.818 16.818 0 0 1 57.026 28.108 Q 58.669 27.306 60.75 26.65 A 24.297 24.297 0 0 1 65.157 25.72 A 32.205 32.205 0 0 1 69 25.5 A 29.563 29.563 0 0 1 72.127 25.656 Q 73.671 25.821 74.997 26.159 A 15.659 15.659 0 0 1 76 26.45 Q 78.9 27.4 80.8 29.2 Q 83.4 31.6 84.2 35.05 Q 85 38.5 85 43.3 L 85 71.1 A 13.126 13.126 0 0 0 85.056 72.351 Q 85.176 73.605 85.559 74.39 A 3.167 3.167 0 0 0 85.7 74.65 A 2.285 2.285 0 0 0 87.179 75.699 Q 87.596 75.8 88.1 75.8 A 5.518 5.518 0 0 0 89.394 75.655 A 4.384 4.384 0 0 0 90.55 75.2 A 11.375 11.375 0 0 0 92.034 74.183 A 13.422 13.422 0 0 0 92.6 73.7 L 93.7 75.4 Q 91.6 77 89.7 78.05 A 7.455 7.455 0 0 1 87.942 78.73 Q 86.5 79.1 84.6 79.1 A 15.498 15.498 0 0 1 82.219 78.931 Q 78.975 78.425 77.7 76.4 A 11.101 11.101 0 0 1 76.042 71.274 A 13.688 13.688 0 0 1 76 70.2 A 24.509 24.509 0 0 1 73.727 73.398 Q 71.424 76.112 68.75 77.3 Q 64.7 79.1 60.3 79.1 A 20.64 20.64 0 0 1 56.925 78.843 Q 55.102 78.54 53.669 77.881 A 8.616 8.616 0 0 1 50.85 75.85 A 11.04 11.04 0 0 1 48.265 70.731 A 16.19 16.19 0 0 1 47.9 67.2 A 14.155 14.155 0 0 1 48.226 64.083 A 10.013 10.013 0 0 1 49.95 60.25 Q 52 57.5 55.2 55.75 Q 58.4 54 61.95 52.75 Q 65.5 51.5 68.7 50.3 A 28.612 28.612 0 0 0 71.111 49.275 Q 72.277 48.711 73.234 48.093 A 15.093 15.093 0 0 0 73.95 47.6 A 5.542 5.542 0 0 0 75.159 46.419 A 4.308 4.308 0 0 0 76 43.8 Z M 367.1 43.8 L 367.1 37.6 A 22.713 22.713 0 0 0 366.99 35.283 Q 366.748 32.925 365.971 31.422 A 6.381 6.381 0 0 0 365.85 31.2 A 7.244 7.244 0 0 0 364.597 29.556 A 5.785 5.785 0 0 0 362.5 28.25 A 12.75 12.75 0 0 0 359.68 27.605 A 16.231 16.231 0 0 0 357.8 27.5 A 20.389 20.389 0 0 0 354.708 27.747 A 26.027 26.027 0 0 0 352.45 28.2 A 8.359 8.359 0 0 0 349.54 29.511 A 7.841 7.841 0 0 0 347.9 31.1 A 5.814 5.814 0 0 1 350.82 32.696 A 7.358 7.358 0 0 1 351.2 33.1 A 5.567 5.567 0 0 1 352.49 35.865 A 7.729 7.729 0 0 1 352.6 37.2 A 6.288 6.288 0 0 1 352.376 38.926 A 4.664 4.664 0 0 1 351 41.15 A 5.525 5.525 0 0 1 348.059 42.515 A 7.611 7.611 0 0 1 346.9 42.6 A 7.158 7.158 0 0 1 345.258 42.424 Q 344.12 42.156 343.324 41.479 A 4.21 4.21 0 0 1 342.65 40.75 Q 341.3 38.9 341.3 36.6 A 8.468 8.468 0 0 1 341.48 34.808 Q 341.736 33.625 342.358 32.724 A 5.182 5.182 0 0 1 342.6 32.4 Q 343.9 30.8 345.9 29.4 A 16.818 16.818 0 0 1 348.126 28.108 Q 349.769 27.306 351.85 26.65 A 24.297 24.297 0 0 1 356.257 25.72 A 32.205 32.205 0 0 1 360.1 25.5 A 29.563 29.563 0 0 1 363.227 25.656 Q 364.771 25.821 366.097 26.159 A 15.659 15.659 0 0 1 367.1 26.45 Q 370 27.4 371.9 29.2 Q 374.5 31.6 375.3 35.05 Q 376.1 38.5 376.1 43.3 L 376.1 71.1 A 13.126 13.126 0 0 0 376.156 72.351 Q 376.276 73.605 376.659 74.39 A 3.167 3.167 0 0 0 376.8 74.65 A 2.285 2.285 0 0 0 378.279 75.699 Q 378.696 75.8 379.2 75.8 A 5.518 5.518 0 0 0 380.494 75.655 A 4.384 4.384 0 0 0 381.65 75.2 A 11.375 11.375 0 0 0 383.134 74.183 A 13.422 13.422 0 0 0 383.7 73.7 L 384.8 75.4 Q 382.7 77 380.8 78.05 A 7.455 7.455 0 0 1 379.042 78.73 Q 377.6 79.1 375.7 79.1 A 15.498 15.498 0 0 1 373.319 78.931 Q 370.075 78.425 368.8 76.4 A 11.101 11.101 0 0 1 367.142 71.274 A 13.688 13.688 0 0 1 367.1 70.2 A 24.509 24.509 0 0 1 364.827 73.398 Q 362.524 76.112 359.85 77.3 Q 355.8 79.1 351.4 79.1 A 20.64 20.64 0 0 1 348.025 78.843 Q 346.202 78.54 344.769 77.881 A 8.616 8.616 0 0 1 341.95 75.85 A 11.04 11.04 0 0 1 339.365 70.731 A 16.19 16.19 0 0 1 339 67.2 A 14.155 14.155 0 0 1 339.326 64.083 A 10.013 10.013 0 0 1 341.05 60.25 Q 343.1 57.5 346.3 55.75 Q 349.5 54 353.05 52.75 Q 356.6 51.5 359.8 50.3 A 28.612 28.612 0 0 0 362.211 49.275 Q 363.377 48.711 364.334 48.093 A 15.093 15.093 0 0 0 365.05 47.6 A 5.542 5.542 0 0 0 366.259 46.419 A 4.308 4.308 0 0 0 367.1 43.8 Z M 38.6 65.2 L 40.5 65.9 Q 39.5 69.1 37.2 72.35 Q 34.9 75.6 31.2 77.7 Q 27.5 79.8 22.1 79.8 Q 15.9 79.8 10.9 76.6 A 21.436 21.436 0 0 1 4.339 69.922 A 26.808 26.808 0 0 1 2.95 67.45 A 27.455 27.455 0 0 1 0.57 60.073 A 38.275 38.275 0 0 1 0 53.3 A 38.71 38.71 0 0 1 0.693 45.814 A 29.681 29.681 0 0 1 2.95 38.85 A 24.954 24.954 0 0 1 7.418 32.235 A 22.455 22.455 0 0 1 11.2 29.05 A 21.08 21.08 0 0 1 22.561 25.511 A 25.591 25.591 0 0 1 23.3 25.5 Q 26.5 25.5 29.5 26.3 A 18.464 18.464 0 0 1 33.822 28.038 A 16.813 16.813 0 0 1 34.9 28.7 A 13.077 13.077 0 0 1 36.815 30.205 A 9.847 9.847 0 0 1 38.4 32.15 Q 39.6 34.1 39.6 36.4 Q 39.6 39.1 38.1 40.55 A 5.111 5.111 0 0 1 34.872 41.977 A 6.843 6.843 0 0 1 34.3 42 Q 32.1 42 30.45 40.7 Q 28.8 39.4 28.8 37 Q 28.8 34.7 30.05 33.3 A 5.957 5.957 0 0 1 31.646 32.015 A 5.413 5.413 0 0 1 33 31.5 Q 32.162 29.99 30.232 28.902 A 11.973 11.973 0 0 0 29.45 28.5 Q 26.9 27.3 24 27.3 A 11.058 11.058 0 0 0 20.094 28.032 A 13.404 13.404 0 0 0 19 28.5 A 11.134 11.134 0 0 0 16.386 30.276 Q 15.352 31.204 14.4 32.45 A 15.89 15.89 0 0 0 12.826 35.014 Q 12.168 36.336 11.619 37.934 A 33.184 33.184 0 0 0 11 39.95 A 32.193 32.193 0 0 0 10.208 43.843 Q 9.907 45.933 9.784 48.346 A 68.222 68.222 0 0 0 9.7 51.8 A 62.973 62.973 0 0 0 9.916 57.187 Q 10.357 62.306 11.7 65.8 A 22.655 22.655 0 0 0 13.185 68.961 Q 14.114 70.577 15.228 71.758 A 10.884 10.884 0 0 0 16.95 73.25 Q 20.2 75.5 24.1 75.5 A 14.408 14.408 0 0 0 29.2 74.533 A 19.153 19.153 0 0 0 32 73.2 A 13.383 13.383 0 0 0 35.599 70.112 Q 36.807 68.662 37.829 66.759 A 26.84 26.84 0 0 0 38.6 65.2 Z M 670.2 34.8 L 668.9 35.8 A 14.541 14.541 0 0 0 667.648 33 Q 666.6 31.224 665.115 30.096 A 8.882 8.882 0 0 0 664.55 29.7 Q 661.6 27.8 657.6 27.8 A 10.412 10.412 0 0 0 650.056 31.02 A 17.09 17.09 0 0 0 647.75 33.9 A 19.573 19.573 0 0 0 645.557 38.732 Q 643.898 44.053 643.898 52.077 A 79.141 79.141 0 0 0 643.9 52.7 A 70.187 70.187 0 0 0 644.101 58.167 Q 644.458 62.723 645.45 66.15 A 23.169 23.169 0 0 0 646.693 69.509 Q 647.519 71.277 648.585 72.614 A 11.648 11.648 0 0 0 650.05 74.15 A 10.75 10.75 0 0 0 656.554 76.768 A 13.915 13.915 0 0 0 657.5 76.8 Q 661.7 76.8 665.1 73.2 A 13.232 13.232 0 0 0 667.661 69.159 Q 668.823 66.373 669.2 62.6 L 670.4 64 A 26.378 26.378 0 0 1 669.466 68.811 Q 668.208 73.009 665.55 75.7 A 13.478 13.478 0 0 1 658.351 79.457 A 19.581 19.581 0 0 1 654.6 79.8 Q 648.4 79.8 643.75 76.8 A 17.372 17.372 0 0 1 638.348 71.178 A 23.261 23.261 0 0 1 636.65 67.8 A 29.878 29.878 0 0 1 635.019 62.186 Q 634.2 57.961 634.2 52.7 Q 634.2 43.6 637.35 37.55 A 24.642 24.642 0 0 1 640.871 32.405 A 19.866 19.866 0 0 1 645.65 28.5 Q 650.8 25.5 656.8 25.5 Q 661.2 25.5 665.05 27.6 Q 668.9 29.7 670.2 34.8 Z M 112.6 0 L 112.6 69.1 Q 112.6 72.604 113.819 74.229 A 3.565 3.565 0 0 0 114.35 74.8 Q 115.945 76.167 119.492 76.288 A 20.755 20.755 0 0 0 120.2 76.3 L 120.2 78.4 Q 118.504 78.3 115.066 78.151 A 3336.726 3336.726 0 0 1 115.05 78.15 Q 111.6 78 108.1 78 Q 104.7 78 101.2 78.15 Q 97.7 78.3 96 78.4 L 96 76.3 Q 99.542 76.3 101.33 75.181 A 4.317 4.317 0 0 0 101.85 74.8 Q 103.426 73.449 103.583 69.909 A 18.297 18.297 0 0 0 103.6 69.1 L 103.6 12 A 20.211 20.211 0 0 0 103.474 9.655 Q 103.15 6.895 102 5.35 Q 100.443 3.257 96.231 3.202 A 17.559 17.559 0 0 0 96 3.2 L 96 1.1 A 67.314 67.314 0 0 0 101.447 1.395 A 60.756 60.756 0 0 0 102.2 1.4 Q 105.1 1.4 107.75 1.05 A 31.037 31.037 0 0 0 110.589 0.546 A 24.902 24.902 0 0 0 112.6 0 Z M 620.6 0 L 620.6 69.1 Q 620.6 72.604 621.819 74.229 A 3.565 3.565 0 0 0 622.35 74.8 Q 623.945 76.167 627.492 76.288 A 20.755 20.755 0 0 0 628.2 76.3 L 628.2 78.4 Q 626.504 78.3 623.066 78.151 A 3336.726 3336.726 0 0 1 623.05 78.15 Q 619.6 78 616.1 78 Q 612.7 78 609.2 78.15 Q 605.7 78.3 604 78.4 L 604 76.3 Q 607.542 76.3 609.33 75.181 A 4.317 4.317 0 0 0 609.85 74.8 Q 611.426 73.449 611.583 69.909 A 18.297 18.297 0 0 0 611.6 69.1 L 611.6 12 A 20.211 20.211 0 0 0 611.474 9.655 Q 611.15 6.895 610 5.35 Q 608.443 3.257 604.231 3.202 A 17.559 17.559 0 0 0 604 3.2 L 604 1.1 A 67.314 67.314 0 0 0 609.447 1.395 A 60.756 60.756 0 0 0 610.2 1.4 Q 613.1 1.4 615.75 1.05 A 31.037 31.037 0 0 0 618.589 0.546 A 24.902 24.902 0 0 0 620.6 0 Z M 326 42.4 L 326 69.1 Q 326 72.604 327.219 74.229 A 3.565 3.565 0 0 0 327.75 74.8 Q 329.345 76.167 332.892 76.288 A 20.755 20.755 0 0 0 333.6 76.3 L 333.6 78.4 Q 331.916 78.301 328.463 78.153 A 902.368 902.368 0 0 0 328.4 78.15 A 159.797 159.797 0 0 0 322.014 78.001 A 146.011 146.011 0 0 0 321.6 78 Q 318.3 78 315.15 78.15 Q 312 78.3 310.4 78.4 L 310.4 76.3 Q 313.648 76.3 315.187 75.079 A 3.662 3.662 0 0 0 315.5 74.8 A 3.952 3.952 0 0 0 316.323 73.525 Q 317 71.922 317 69.1 L 317 40.2 A 41.908 41.908 0 0 0 316.875 36.882 A 32.737 32.737 0 0 0 316.6 34.5 A 8.607 8.607 0 0 0 316.021 32.416 A 6.668 6.668 0 0 0 314.6 30.3 Q 313 28.7 309.4 28.7 Q 303.6 28.7 299.75 33.9 A 19.281 19.281 0 0 0 296.315 42.016 A 26.47 26.47 0 0 0 295.9 46.8 L 295.6 37.5 A 26.292 26.292 0 0 1 297.551 33.483 Q 299.792 29.773 302.9 28.05 Q 307.5 25.5 312.3 25.5 A 20.739 20.739 0 0 1 315.191 25.691 Q 316.938 25.938 318.4 26.5 A 12.49 12.49 0 0 1 321.041 27.878 A 10.486 10.486 0 0 1 322.7 29.3 A 9.735 9.735 0 0 1 324.66 32.398 A 13.056 13.056 0 0 1 325.3 34.5 A 26.662 26.662 0 0 1 325.727 37.111 Q 325.894 38.544 325.959 40.194 A 56.034 56.034 0 0 1 326 42.4 Z M 677.8 0 L 677.8 67.5 Q 677.8 71.737 679.263 73.891 A 5.521 5.521 0 0 0 679.45 74.15 Q 681.1 76.3 685.4 76.3 L 685.4 78.4 Q 682.3 78.1 679.2 78.1 A 50.934 50.934 0 0 0 674.991 78.269 A 44.952 44.952 0 0 0 673.65 78.4 A 22.818 22.818 0 0 0 670.588 78.951 A 18.787 18.787 0 0 0 668.8 79.5 L 668.8 12 A 20.211 20.211 0 0 0 668.674 9.655 Q 668.35 6.895 667.2 5.35 Q 665.643 3.257 661.431 3.202 A 17.559 17.559 0 0 0 661.2 3.2 L 661.2 1.1 A 67.314 67.314 0 0 0 666.647 1.395 A 60.756 60.756 0 0 0 667.4 1.4 Q 670.3 1.4 672.95 1.05 A 31.037 31.037 0 0 0 675.789 0.546 A 24.902 24.902 0 0 0 677.8 0 Z M 197.5 78.9 L 195.6 78.1 L 192 87.4 A 24.818 24.818 0 0 1 191.017 89.616 Q 189.783 92.044 188.3 93.35 Q 186.2 95.2 183.5 95.2 L 183.25 95.2 A 0.532 0.532 0 0 1 183.152 95.19 Q 183.094 95.179 183.029 95.156 A 1.215 1.215 0 0 1 182.9 95.1 A 5.394 5.394 0 0 0 183.59 94.652 A 5.996 5.996 0 0 0 184.8 93.4 A 3.705 3.705 0 0 0 184.875 93.294 Q 185.303 92.659 185.479 91.835 A 5.929 5.929 0 0 0 185.6 90.6 A 5.906 5.906 0 0 0 185.501 89.487 A 3.883 3.883 0 0 0 184.1 87.1 Q 182.6 85.9 180.5 85.9 A 6.943 6.943 0 0 0 178.912 86.071 A 4.592 4.592 0 0 0 176.6 87.35 Q 175.2 88.8 175.2 91.2 Q 175.2 93.1 176.1 94.45 Q 177 95.8 178.55 96.5 A 7.593 7.593 0 0 0 179.868 96.953 A 8.917 8.917 0 0 0 182 97.2 Q 183.8 97.2 186 96.65 Q 188.2 96.1 189.8 94.6 Q 192.2 92.5 194.1 87.6 L 197.5 78.9 Z M 76 67.5 L 76 47.9 Q 74.588 49.971 71.714 51.244 A 15.416 15.416 0 0 1 71.35 51.4 Q 68.2 52.7 64.85 54.25 Q 61.5 55.8 59.1 58.45 A 8.635 8.635 0 0 0 57.264 61.781 Q 56.7 63.627 56.7 66 A 14.671 14.671 0 0 0 56.903 68.524 Q 57.143 69.896 57.668 70.978 A 6.652 6.652 0 0 0 59 72.85 A 7.801 7.801 0 0 0 64.542 75.099 A 10.16 10.16 0 0 0 64.7 75.1 Q 67.7 75.1 70.6 73.35 A 12.513 12.513 0 0 0 73.019 71.412 Q 74.575 69.838 76 67.5 Z M 367.1 67.5 L 367.1 47.9 Q 365.688 49.971 362.814 51.244 A 15.416 15.416 0 0 1 362.45 51.4 Q 359.3 52.7 355.95 54.25 Q 352.6 55.8 350.2 58.45 A 8.635 8.635 0 0 0 348.364 61.781 Q 347.8 63.627 347.8 66 A 14.671 14.671 0 0 0 348.003 68.524 Q 348.243 69.896 348.768 70.978 A 6.652 6.652 0 0 0 350.1 72.85 A 7.801 7.801 0 0 0 355.642 75.099 A 10.16 10.16 0 0 0 355.8 75.1 Q 358.8 75.1 361.7 73.35 A 12.513 12.513 0 0 0 364.119 71.412 Q 365.675 69.838 367.1 67.5 Z" vector-effect="non-scaling-stroke"/></g></svg>