<svg width="998.5" height="96.5" viewBox="0 0 998.5 96.5" xmlns="http://www.w3.org/2000/svg"><g id="svgGroup" stroke-linecap="round" fill-rule="evenodd" font-size="9pt" fill="none" style="fill: #a2768f"><path d="M 30.1 25.6 L 32.4 25.6 A 110.35 110.35 0 0 0 32.264 27.848 Q 32.163 29.844 32.1 32.25 A 224.715 224.715 0 0 0 32.056 34.341 Q 32.018 36.667 32.005 39.699 A 729.123 729.123 0 0 0 32 42.6 L 29.7 42.6 Q 29.1 38.9 27.65 35.4 A 14.398 14.398 0 0 0 24.403 30.538 A 13.937 13.937 0 0 0 23.4 29.65 A 9.852 9.852 0 0 0 19.416 27.757 Q 17.988 27.422 16.323 27.401 A 17.749 17.749 0 0 0 16.1 27.4 A 10.362 10.362 0 0 0 13.281 27.767 A 8.152 8.152 0 0 0 10.25 29.35 A 6.26 6.26 0 0 0 8.153 32.805 A 9.77 9.77 0 0 0 7.9 35.1 A 8.342 8.342 0 0 0 8.393 38.008 A 7.533 7.533 0 0 0 9.7 40.25 Q 11.5 42.4 14.4 44.25 Q 17.3 46.1 20.7 48.3 Q 26.4 52 30.4 55.8 A 12.667 12.667 0 0 1 34.292 63.83 A 17.535 17.535 0 0 1 34.4 65.8 A 14.583 14.583 0 0 1 33.973 69.414 A 11.062 11.062 0 0 1 32 73.5 A 14.937 14.937 0 0 1 26.108 78.047 A 17.679 17.679 0 0 1 25.75 78.2 A 21.077 21.077 0 0 1 19.277 79.723 A 25.124 25.124 0 0 1 17.3 79.8 A 24.673 24.673 0 0 1 14.393 79.635 A 21.123 21.123 0 0 1 13.15 79.45 Q 11.2 79.1 9.4 78.4 A 17.885 17.885 0 0 1 8.13 77.697 A 21.455 21.455 0 0 1 7.35 77.2 Q 6.3 76.5 5.3 75.7 Q 4.325 74.92 3.54 75.708 A 2.063 2.063 0 0 0 3.5 75.75 Q 2.7 76.6 2.3 79.1 L 0 79.1 A 138.748 138.748 0 0 0 0.136 76.503 Q 0.238 74.175 0.3 71.3 Q 0.389 67.185 0.399 60.67 A 1084.4 1084.4 0 0 0 0.4 59.1 L 2.7 59.1 A 70.879 70.879 0 0 0 3.427 63.732 Q 3.969 66.538 4.7 68.9 A 16.244 16.244 0 0 0 6.109 72.194 A 11.998 11.998 0 0 0 8.8 75.45 Q 11.6 77.8 16.6 77.8 Q 19.6 77.8 22.55 75.7 A 6.377 6.377 0 0 0 24.808 72.684 Q 25.5 70.867 25.5 68.3 A 9.836 9.836 0 0 0 24.797 64.527 A 9.147 9.147 0 0 0 22.3 61.1 A 49.724 49.724 0 0 0 19.419 58.775 Q 17.831 57.583 15.96 56.34 A 94.936 94.936 0 0 0 14.2 55.2 Q 10.6 52.9 7.45 50.6 A 22.313 22.313 0 0 1 3.981 47.491 A 19.032 19.032 0 0 1 2.35 45.4 A 11.329 11.329 0 0 1 0.591 40.849 A 15.134 15.134 0 0 1 0.4 38.4 A 16.179 16.179 0 0 1 0.688 35.257 Q 1.169 32.831 2.45 31.05 Q 4.5 28.2 7.9 26.85 A 19.455 19.455 0 0 1 14.684 25.506 A 22.252 22.252 0 0 1 15.2 25.5 A 20.546 20.546 0 0 1 18.252 25.715 Q 19.881 25.96 21.252 26.484 A 11.731 11.731 0 0 1 22 26.8 Q 24.8 28.1 26.1 29.2 Q 29.263 31.788 30.037 26.108 A 20.601 20.601 0 0 0 30.1 25.6 Z" id="0" vector-effect="non-scaling-stroke"/><path d="M 57.7 0 L 57.7 69.1 Q 57.7 72.423 58.639 74.056 A 3.54 3.54 0 0 0 59.2 74.8 Q 60.633 76.233 63.984 76.297 A 16.619 16.619 0 0 0 64.3 76.3 L 64.3 78.4 Q 63.075 78.323 60.941 78.218 A 699.179 699.179 0 0 0 59.55 78.15 Q 56.4 78 53.2 78 Q 49.8 78 46.3 78.15 Q 42.8 78.3 41.1 78.4 L 41.1 76.3 Q 44.641 76.3 46.429 75.181 A 4.317 4.317 0 0 0 46.95 74.8 Q 48.526 73.449 48.683 69.909 A 18.297 18.297 0 0 0 48.7 69.1 L 48.7 12 A 20.211 20.211 0 0 0 48.573 9.655 Q 48.25 6.895 47.1 5.35 Q 45.542 3.257 41.331 3.202 A 17.559 17.559 0 0 0 41.1 3.2 L 41.1 1.1 A 67.314 67.314 0 0 0 46.547 1.395 A 60.756 60.756 0 0 0 47.3 1.4 Q 50.2 1.4 52.85 1.05 A 31.037 31.037 0 0 0 55.689 0.546 A 24.902 24.902 0 0 0 57.7 0 Z M 89.5 26.9 L 89.5 28.9 Q 87 29.1 84.8 30.25 A 14.537 14.537 0 0 0 82.491 31.768 A 19.827 19.827 0 0 0 80.5 33.6 L 66.4 48.4 L 67.8 45.6 L 86.4 71.1 A 28.842 28.842 0 0 0 87.654 72.684 Q 88.681 73.888 89.65 74.7 A 7.033 7.033 0 0 0 92.728 76.182 A 8.681 8.681 0 0 0 93.4 76.3 L 93.4 78.4 Q 92.341 78.304 90.124 78.161 A 360.482 360.482 0 0 0 89.95 78.15 Q 87.6 78 85.3 78 Q 82.2 78 79 78.15 Q 75.8 78.3 74.2 78.4 L 74.2 76.3 Q 75.328 76.3 76.074 75.982 A 2.326 2.326 0 0 0 77 75.3 A 1.562 1.562 0 0 0 77.263 74.833 Q 77.494 74.162 77.005 73.341 A 4.147 4.147 0 0 0 76.7 72.9 L 65.2 56.1 Q 63.576 53.792 62.208 52.873 A 4.627 4.627 0 0 0 61.75 52.6 A 6.413 6.413 0 0 0 60.525 52.133 Q 59.288 51.789 57.543 51.71 A 21.923 21.923 0 0 0 57.3 51.7 L 57.3 49.7 A 24.72 24.72 0 0 0 59.445 49.341 Q 60.443 49.126 61.285 48.839 A 11.401 11.401 0 0 0 62.5 48.35 A 11.658 11.658 0 0 0 64.804 46.887 A 15.15 15.15 0 0 0 66.3 45.5 L 73.7 37.8 A 24.567 24.567 0 0 0 74.947 36.421 Q 76.828 34.16 76.897 32.664 A 2.451 2.451 0 0 0 76.9 32.55 Q 76.9 30.98 75.57 30.123 A 4.529 4.529 0 0 0 74.85 29.75 Q 73.361 29.132 71.211 28.964 A 21.883 21.883 0 0 0 69.5 28.9 L 69.5 26.9 Q 72.016 26.997 75.141 27.14 A 1046.083 1046.083 0 0 1 75.35 27.15 Q 78.561 27.298 80.747 27.3 A 65.234 65.234 0 0 0 80.8 27.3 A 106.316 106.316 0 0 0 83.9 27.256 A 97.125 97.125 0 0 0 84.1 27.25 A 80.958 80.958 0 0 0 86.022 27.168 A 66.395 66.395 0 0 0 87.1 27.1 Q 88.5 27 89.5 26.9 Z" id="1" vector-effect="non-scaling-stroke"/><path d="M 113.6 25.8 L 113.6 69.1 Q 113.6 72.604 114.818 74.229 A 3.565 3.565 0 0 0 115.35 74.8 Q 116.945 76.167 120.492 76.288 A 20.755 20.755 0 0 0 121.2 76.3 L 121.2 78.4 Q 119.504 78.3 116.065 78.151 A 3336.726 3336.726 0 0 1 116.05 78.15 Q 112.6 78 109.1 78 Q 105.7 78 102.2 78.15 Q 98.7 78.3 97 78.4 L 97 76.3 Q 100.541 76.3 102.329 75.181 A 4.317 4.317 0 0 0 102.85 74.8 Q 104.426 73.449 104.583 69.909 A 18.297 18.297 0 0 0 104.6 69.1 L 104.6 37.8 A 20.211 20.211 0 0 0 104.473 35.455 Q 104.15 32.695 103 31.15 Q 101.442 29.057 97.231 29.002 A 17.559 17.559 0 0 0 97 29 L 97 26.9 A 67.314 67.314 0 0 0 102.447 27.195 A 60.756 60.756 0 0 0 103.2 27.2 Q 106.1 27.2 108.75 26.85 A 31.037 31.037 0 0 0 111.589 26.346 A 24.902 24.902 0 0 0 113.6 25.8 Z M 112.84 3.741 A 6.138 6.138 0 0 0 108.4 1.9 A 6.201 6.201 0 0 0 106.115 2.318 A 6.465 6.465 0 0 0 103.9 3.8 A 7.796 7.796 0 0 0 103.841 3.86 A 6.138 6.138 0 0 0 102 8.3 A 6.201 6.201 0 0 0 102.418 10.585 A 6.465 6.465 0 0 0 103.9 12.8 A 7.796 7.796 0 0 0 103.96 12.859 A 6.138 6.138 0 0 0 108.4 14.7 A 6.201 6.201 0 0 0 110.685 14.282 A 6.465 6.465 0 0 0 112.9 12.8 A 7.796 7.796 0 0 0 112.959 12.74 A 6.138 6.138 0 0 0 114.8 8.3 A 6.201 6.201 0 0 0 114.382 6.015 A 6.465 6.465 0 0 0 112.9 3.8 A 7.796 7.796 0 0 0 112.84 3.741 Z" id="2" vector-effect="non-scaling-stroke"/><path d="M 174 42.4 L 174 69.1 Q 174 72.604 175.218 74.229 A 3.565 3.565 0 0 0 175.75 74.8 Q 177.345 76.167 180.892 76.288 A 20.755 20.755 0 0 0 181.6 76.3 L 181.6 78.4 Q 179.915 78.301 176.462 78.153 A 902.368 902.368 0 0 0 176.4 78.15 A 159.797 159.797 0 0 0 170.013 78.001 A 146.011 146.011 0 0 0 169.6 78 Q 166.3 78 163.15 78.15 Q 160 78.3 158.4 78.4 L 158.4 76.3 Q 161.648 76.3 163.186 75.079 A 3.662 3.662 0 0 0 163.5 74.8 A 3.952 3.952 0 0 0 164.323 73.525 Q 165 71.922 165 69.1 L 165 40.2 A 33.559 33.559 0 0 0 164.842 36.871 A 26.473 26.473 0 0 0 164.5 34.5 A 8.279 8.279 0 0 0 163.722 32.216 A 6.913 6.913 0 0 0 162.25 30.3 Q 160.931 29.094 158.561 28.797 A 13.382 13.382 0 0 0 156.9 28.7 A 11.807 11.807 0 0 0 147.816 32.648 A 15.378 15.378 0 0 0 146.75 33.95 A 19.596 19.596 0 0 0 143.285 42.273 A 26.691 26.691 0 0 0 142.9 46.9 L 142.9 69.1 Q 142.9 72.423 143.839 74.056 A 3.54 3.54 0 0 0 144.4 74.8 Q 145.833 76.233 149.184 76.297 A 16.619 16.619 0 0 0 149.5 76.3 L 149.5 78.4 Q 148.275 78.323 146.141 78.218 A 699.179 699.179 0 0 0 144.75 78.15 Q 141.6 78 138.3 78 A 158.016 158.016 0 0 0 131.937 78.132 A 172.733 172.733 0 0 0 131.5 78.15 Q 128 78.3 126.3 78.4 L 126.3 76.3 Q 129.841 76.3 131.629 75.181 A 4.317 4.317 0 0 0 132.15 74.8 Q 133.726 73.449 133.883 69.909 A 18.297 18.297 0 0 0 133.9 69.1 L 133.9 37.8 A 20.211 20.211 0 0 0 133.773 35.455 Q 133.45 32.695 132.3 31.15 Q 130.742 29.057 126.531 29.002 A 17.559 17.559 0 0 0 126.3 29 L 126.3 26.9 A 67.314 67.314 0 0 0 131.747 27.195 A 60.756 60.756 0 0 0 132.5 27.2 Q 135.4 27.2 138.05 26.85 A 31.037 31.037 0 0 0 140.889 26.346 A 24.902 24.902 0 0 0 142.9 25.8 L 142.9 37.6 Q 144.839 32.529 147.918 29.766 A 12.904 12.904 0 0 1 150.15 28.15 Q 154.8 25.5 159.9 25.5 Q 162.809 25.5 164.986 26.086 A 12.027 12.027 0 0 1 166.25 26.5 Q 168.8 27.5 170.5 29.3 Q 172.4 31.3 173.2 34.3 Q 174 37.3 174 42.4 Z" id="3" vector-effect="non-scaling-stroke"/><path d="M 227.5 46.9 L 227.5 68.1 A 13.018 13.018 0 0 0 227.689 70.411 Q 227.91 71.632 228.389 72.56 A 5.002 5.002 0 0 0 230.35 74.65 A 10.832 10.832 0 0 0 233.004 75.718 Q 235.191 76.3 238.1 76.3 L 238.1 78.4 Q 236.339 78.323 233.464 78.218 A 1679.525 1679.525 0 0 0 231.6 78.15 Q 227.4 78 222.7 78 Q 219.3 78 215.95 78.15 Q 212.6 78.3 210.9 78.4 L 210.9 76.3 Q 214.441 76.3 216.229 75.181 A 4.317 4.317 0 0 0 216.75 74.8 Q 218.326 73.449 218.483 69.909 A 18.297 18.297 0 0 0 218.5 69.1 L 218.5 37.8 A 20.211 20.211 0 0 0 218.373 35.455 Q 218.05 32.695 216.9 31.15 Q 215.342 29.057 211.131 29.002 A 17.559 17.559 0 0 0 210.9 29 L 210.9 26.9 A 67.314 67.314 0 0 0 216.347 27.195 A 60.756 60.756 0 0 0 217.1 27.2 Q 220 27.2 222.65 26.85 A 31.037 31.037 0 0 0 225.489 26.346 A 24.902 24.902 0 0 0 227.5 25.8 L 227.5 38.3 A 25.054 25.054 0 0 1 229.243 34.661 A 31.375 31.375 0 0 1 230.65 32.45 Q 232.7 29.5 235.6 27.5 Q 238.5 25.5 242 25.5 A 11.232 11.232 0 0 1 244.528 25.773 A 8.907 8.907 0 0 1 246.75 26.6 A 9.304 9.304 0 0 1 248.771 28.043 A 7.972 7.972 0 0 1 249.95 29.45 Q 251.1 31.2 251.1 33.4 Q 251.1 35.9 249.55 37.8 Q 248 39.7 245.4 39.7 Q 243.3 39.7 241.7 38.35 A 4.382 4.382 0 0 1 240.213 35.747 A 6.556 6.556 0 0 1 240.1 34.5 A 5.73 5.73 0 0 1 240.346 32.788 A 4.819 4.819 0 0 1 241.15 31.25 A 9.539 9.539 0 0 1 242.523 29.809 A 8.081 8.081 0 0 1 243.5 29.1 Q 242.8 28.1 241.4 28.1 A 9.874 9.874 0 0 0 234.246 31.104 A 12.9 12.9 0 0 0 234.1 31.25 A 22.197 22.197 0 0 0 229.59 37.986 A 25.63 25.63 0 0 0 229.25 38.8 A 27.615 27.615 0 0 0 228.085 42.388 Q 227.61 44.316 227.521 46.09 A 16.15 16.15 0 0 0 227.5 46.9 Z" id="5" vector-effect="non-scaling-stroke"/><path d="M 296.4 47.5 L 261.1 47.5 L 261 45.6 L 286.8 45.6 A 39.541 39.541 0 0 0 286.833 43.987 Q 286.833 40.008 286 36.55 Q 285 32.4 282.85 29.9 A 6.914 6.914 0 0 0 277.824 27.415 A 8.868 8.868 0 0 0 277.3 27.4 Q 272.795 27.4 269.298 31.811 A 18.243 18.243 0 0 0 269.15 32 Q 265.6 36.6 264.9 46.6 L 265.2 47 Q 265 48.5 264.9 50.3 Q 264.8 52.1 264.8 53.9 Q 264.8 60.178 266.675 64.836 A 21.103 21.103 0 0 0 267 65.6 A 21.979 21.979 0 0 0 269.097 69.316 A 15.751 15.751 0 0 0 272.75 73.05 A 14.386 14.386 0 0 0 276.019 74.837 A 11.386 11.386 0 0 0 280.1 75.6 Q 284.6 75.6 288.4 73.4 A 12.727 12.727 0 0 0 291.648 70.649 Q 292.797 69.317 293.795 67.559 A 26.938 26.938 0 0 0 294.8 65.6 L 296.8 66.4 A 19.252 19.252 0 0 1 294.69 70.744 A 23.943 23.943 0 0 1 293.2 72.8 Q 290.7 75.9 286.9 77.85 A 17.509 17.509 0 0 1 281.398 79.569 A 22.783 22.783 0 0 1 278.1 79.8 A 26.268 26.268 0 0 1 271.996 79.122 A 20.138 20.138 0 0 1 265.75 76.5 Q 260.6 73.2 257.85 67.35 A 28.542 28.542 0 0 1 255.487 59.354 A 37.111 37.111 0 0 1 255.1 53.9 A 46.365 46.365 0 0 1 255.617 46.79 Q 256.303 42.371 257.9 38.75 A 24.854 24.854 0 0 1 261.368 33.011 A 20.633 20.633 0 0 1 265.8 28.95 A 20.136 20.136 0 0 1 275.515 25.593 A 25.268 25.268 0 0 1 277.7 25.5 A 23.24 23.24 0 0 1 283.47 26.176 A 16.025 16.025 0 0 1 291.45 30.85 Q 295.103 34.798 296.06 41.988 A 41.868 41.868 0 0 1 296.4 47.5 Z" id="6" vector-effect="non-scaling-stroke"/><path d="M 349.3 26.9 L 349.3 28.9 Q 347.4 29.1 345.8 30.6 Q 344.399 31.914 343.151 34.992 A 30.274 30.274 0 0 0 342.8 35.9 L 326.4 78.9 L 325.6 78.9 L 324.7 78.9 L 306.3 34.6 Q 305.147 31.791 304.021 30.564 A 3.491 3.491 0 0 0 303.15 29.85 Q 302.168 29.311 301.366 29.114 A 3.635 3.635 0 0 0 300.5 29 L 300.5 26.9 Q 302.5 27 304.65 27.15 Q 306.8 27.3 309.3 27.3 Q 312.4 27.3 315.85 27.2 Q 319.3 27.1 322.3 26.9 L 322.3 29 A 30.513 30.513 0 0 0 320.077 29.077 Q 319.035 29.153 318.111 29.305 A 18.206 18.206 0 0 0 317.85 29.35 A 4.148 4.148 0 0 0 316.816 29.668 A 2.709 2.709 0 0 0 315.35 31.3 A 2.639 2.639 0 0 0 315.231 31.831 Q 315.057 33.225 315.936 35.799 A 27.87 27.87 0 0 0 316.3 36.8 L 328.8 67.7 L 328.2 68.2 L 339.6 38.3 Q 341.5 33.3 340.05 31.3 A 3.981 3.981 0 0 0 338.726 30.183 Q 336.902 29.172 333.3 28.9 L 333.3 26.9 Q 335.9 27 337.65 27.1 Q 339.154 27.186 341.064 27.198 A 100.544 100.544 0 0 0 341.7 27.2 A 91.094 91.094 0 0 0 343.871 27.175 Q 344.901 27.151 345.821 27.102 A 56.886 56.886 0 0 0 345.85 27.1 Q 347.7 27 349.3 26.9 Z" id="7" vector-effect="non-scaling-stroke"/><path d="M 369.1 25.8 L 369.1 69.1 Q 369.1 72.604 370.318 74.229 A 3.565 3.565 0 0 0 370.85 74.8 Q 372.445 76.167 375.992 76.288 A 20.755 20.755 0 0 0 376.7 76.3 L 376.7 78.4 Q 375.004 78.3 371.565 78.151 A 3336.726 3336.726 0 0 1 371.55 78.15 Q 368.1 78 364.6 78 Q 361.2 78 357.7 78.15 Q 354.2 78.3 352.5 78.4 L 352.5 76.3 Q 356.041 76.3 357.829 75.181 A 4.317 4.317 0 0 0 358.35 74.8 Q 359.926 73.449 360.083 69.909 A 18.297 18.297 0 0 0 360.1 69.1 L 360.1 37.8 A 20.211 20.211 0 0 0 359.973 35.455 Q 359.65 32.695 358.5 31.15 Q 356.942 29.057 352.731 29.002 A 17.559 17.559 0 0 0 352.5 29 L 352.5 26.9 A 67.314 67.314 0 0 0 357.947 27.195 A 60.756 60.756 0 0 0 358.7 27.2 Q 361.6 27.2 364.25 26.85 A 31.037 31.037 0 0 0 367.089 26.346 A 24.902 24.902 0 0 0 369.1 25.8 Z M 368.34 3.741 A 6.138 6.138 0 0 0 363.9 1.9 A 6.201 6.201 0 0 0 361.615 2.318 A 6.465 6.465 0 0 0 359.4 3.8 A 7.796 7.796 0 0 0 359.341 3.86 A 6.138 6.138 0 0 0 357.5 8.3 A 6.201 6.201 0 0 0 357.918 10.585 A 6.465 6.465 0 0 0 359.4 12.8 A 7.796 7.796 0 0 0 359.46 12.859 A 6.138 6.138 0 0 0 363.9 14.7 A 6.201 6.201 0 0 0 366.185 14.282 A 6.465 6.465 0 0 0 368.4 12.8 A 7.796 7.796 0 0 0 368.459 12.74 A 6.138 6.138 0 0 0 370.3 8.3 A 6.201 6.201 0 0 0 369.882 6.015 A 6.465 6.465 0 0 0 368.4 3.8 A 7.796 7.796 0 0 0 368.34 3.741 Z" id="8" vector-effect="non-scaling-stroke"/><path d="M 427.5 26.9 L 427.5 28.9 Q 425.6 29.1 424 30.6 Q 422.599 31.914 421.351 34.992 A 30.274 30.274 0 0 0 421 35.9 L 404.6 78.9 L 403.8 78.9 L 402.9 78.9 L 384.5 34.6 Q 383.347 31.791 382.221 30.564 A 3.491 3.491 0 0 0 381.35 29.85 Q 380.368 29.311 379.566 29.114 A 3.635 3.635 0 0 0 378.7 29 L 378.7 26.9 Q 380.7 27 382.85 27.15 Q 385 27.3 387.5 27.3 Q 390.6 27.3 394.05 27.2 Q 397.5 27.1 400.5 26.9 L 400.5 29 A 30.513 30.513 0 0 0 398.277 29.077 Q 397.235 29.153 396.311 29.305 A 18.206 18.206 0 0 0 396.05 29.35 A 4.148 4.148 0 0 0 395.016 29.668 A 2.709 2.709 0 0 0 393.55 31.3 A 2.639 2.639 0 0 0 393.431 31.831 Q 393.257 33.225 394.136 35.799 A 27.87 27.87 0 0 0 394.5 36.8 L 407 67.7 L 406.4 68.2 L 417.8 38.3 Q 419.7 33.3 418.25 31.3 A 3.981 3.981 0 0 0 416.926 30.183 Q 415.102 29.172 411.5 28.9 L 411.5 26.9 Q 414.1 27 415.85 27.1 Q 417.354 27.186 419.264 27.198 A 100.544 100.544 0 0 0 419.9 27.2 A 91.094 91.094 0 0 0 422.071 27.175 Q 423.101 27.151 424.021 27.102 A 56.886 56.886 0 0 0 424.05 27.1 Q 425.9 27 427.5 26.9 Z" id="9" vector-effect="non-scaling-stroke"/><path d="M 447.3 25.8 L 447.3 69.1 Q 447.3 72.604 448.518 74.229 A 3.565 3.565 0 0 0 449.05 74.8 Q 450.645 76.167 454.192 76.288 A 20.755 20.755 0 0 0 454.9 76.3 L 454.9 78.4 Q 453.204 78.3 449.765 78.151 A 3336.726 3336.726 0 0 1 449.75 78.15 Q 446.3 78 442.8 78 Q 439.4 78 435.9 78.15 Q 432.4 78.3 430.7 78.4 L 430.7 76.3 Q 434.241 76.3 436.029 75.181 A 4.317 4.317 0 0 0 436.55 74.8 Q 438.126 73.449 438.283 69.909 A 18.297 18.297 0 0 0 438.3 69.1 L 438.3 37.8 A 20.211 20.211 0 0 0 438.173 35.455 Q 437.85 32.695 436.7 31.15 Q 435.142 29.057 430.931 29.002 A 17.559 17.559 0 0 0 430.7 29 L 430.7 26.9 A 67.314 67.314 0 0 0 436.147 27.195 A 60.756 60.756 0 0 0 436.9 27.2 Q 439.8 27.2 442.45 26.85 A 31.037 31.037 0 0 0 445.289 26.346 A 24.902 24.902 0 0 0 447.3 25.8 Z M 446.54 3.741 A 6.138 6.138 0 0 0 442.1 1.9 A 6.201 6.201 0 0 0 439.815 2.318 A 6.465 6.465 0 0 0 437.6 3.8 A 7.796 7.796 0 0 0 437.541 3.86 A 6.138 6.138 0 0 0 435.7 8.3 A 6.201 6.201 0 0 0 436.118 10.585 A 6.465 6.465 0 0 0 437.6 12.8 A 7.796 7.796 0 0 0 437.66 12.859 A 6.138 6.138 0 0 0 442.1 14.7 A 6.201 6.201 0 0 0 444.385 14.282 A 6.465 6.465 0 0 0 446.6 12.8 A 7.796 7.796 0 0 0 446.659 12.74 A 6.138 6.138 0 0 0 448.5 8.3 A 6.201 6.201 0 0 0 448.082 6.015 A 6.465 6.465 0 0 0 446.6 3.8 A 7.796 7.796 0 0 0 446.54 3.741 Z" id="10" vector-effect="non-scaling-stroke"/><path d="M 489.1 43.8 L 489.1 37.6 A 22.713 22.713 0 0 0 488.99 35.283 Q 488.747 32.925 487.971 31.422 A 6.381 6.381 0 0 0 487.85 31.2 A 7.244 7.244 0 0 0 486.597 29.556 A 5.785 5.785 0 0 0 484.5 28.25 A 12.75 12.75 0 0 0 481.68 27.605 A 16.231 16.231 0 0 0 479.8 27.5 A 20.389 20.389 0 0 0 476.708 27.747 A 26.027 26.027 0 0 0 474.45 28.2 A 8.359 8.359 0 0 0 471.539 29.511 A 7.841 7.841 0 0 0 469.9 31.1 A 5.814 5.814 0 0 1 472.819 32.696 A 7.358 7.358 0 0 1 473.2 33.1 A 5.567 5.567 0 0 1 474.489 35.865 A 7.729 7.729 0 0 1 474.6 37.2 A 6.288 6.288 0 0 1 474.375 38.926 A 4.664 4.664 0 0 1 473 41.15 A 5.525 5.525 0 0 1 470.058 42.515 A 7.611 7.611 0 0 1 468.9 42.6 A 7.158 7.158 0 0 1 467.258 42.424 Q 466.12 42.156 465.324 41.479 A 4.21 4.21 0 0 1 464.65 40.75 Q 463.3 38.9 463.3 36.6 A 8.468 8.468 0 0 1 463.479 34.808 Q 463.735 33.625 464.357 32.724 A 5.182 5.182 0 0 1 464.6 32.4 Q 465.9 30.8 467.9 29.4 A 16.818 16.818 0 0 1 470.126 28.108 Q 471.768 27.306 473.85 26.65 A 24.297 24.297 0 0 1 478.257 25.72 A 32.205 32.205 0 0 1 482.1 25.5 A 29.563 29.563 0 0 1 485.226 25.656 Q 486.771 25.821 488.096 26.159 A 15.659 15.659 0 0 1 489.1 26.45 Q 492 27.4 493.9 29.2 Q 496.5 31.6 497.3 35.05 Q 498.1 38.5 498.1 43.3 L 498.1 71.1 A 13.126 13.126 0 0 0 498.155 72.351 Q 498.276 73.605 498.659 74.39 A 3.167 3.167 0 0 0 498.8 74.65 A 2.285 2.285 0 0 0 500.279 75.699 Q 500.695 75.8 501.2 75.8 A 5.518 5.518 0 0 0 502.493 75.655 A 4.384 4.384 0 0 0 503.65 75.2 A 11.375 11.375 0 0 0 505.134 74.183 A 13.422 13.422 0 0 0 505.7 73.7 L 506.8 75.4 Q 504.7 77 502.8 78.05 A 7.455 7.455 0 0 1 501.042 78.73 Q 499.6 79.1 497.7 79.1 A 15.498 15.498 0 0 1 495.319 78.931 Q 492.075 78.425 490.8 76.4 A 11.101 11.101 0 0 1 489.142 71.274 A 13.688 13.688 0 0 1 489.1 70.2 A 24.509 24.509 0 0 1 486.827 73.398 Q 484.524 76.112 481.85 77.3 Q 477.8 79.1 473.4 79.1 A 20.64 20.64 0 0 1 470.025 78.843 Q 468.202 78.54 466.769 77.881 A 8.616 8.616 0 0 1 463.95 75.85 A 11.04 11.04 0 0 1 461.365 70.731 A 16.19 16.19 0 0 1 461 67.2 A 14.155 14.155 0 0 1 461.325 64.083 A 10.013 10.013 0 0 1 463.05 60.25 Q 465.1 57.5 468.3 55.75 Q 471.5 54 475.05 52.75 Q 478.6 51.5 481.8 50.3 A 28.612 28.612 0 0 0 484.21 49.275 Q 485.376 48.711 486.333 48.093 A 15.093 15.093 0 0 0 487.05 47.6 A 5.542 5.542 0 0 0 488.259 46.419 A 4.308 4.308 0 0 0 489.1 43.8 Z M 489.1 67.5 L 489.1 47.9 Q 487.688 49.971 484.814 51.244 A 15.416 15.416 0 0 1 484.45 51.4 Q 481.3 52.7 477.95 54.25 Q 474.6 55.8 472.2 58.45 A 8.635 8.635 0 0 0 470.363 61.781 Q 469.8 63.627 469.8 66 A 14.671 14.671 0 0 0 470.003 68.524 Q 470.243 69.896 470.767 70.978 A 6.652 6.652 0 0 0 472.1 72.85 A 7.801 7.801 0 0 0 477.641 75.099 A 10.16 10.16 0 0 0 477.8 75.1 Q 480.8 75.1 483.7 73.35 A 12.513 12.513 0 0 0 486.118 71.412 Q 487.674 69.838 489.1 67.5 Z" id="11" vector-effect="non-scaling-stroke"/><path d="M 525.7 0 L 525.7 69.1 Q 525.7 72.604 526.918 74.229 A 3.565 3.565 0 0 0 527.45 74.8 Q 529.045 76.167 532.592 76.288 A 20.755 20.755 0 0 0 533.3 76.3 L 533.3 78.4 Q 531.604 78.3 528.165 78.151 A 3336.726 3336.726 0 0 1 528.15 78.15 Q 524.7 78 521.2 78 Q 517.8 78 514.3 78.15 Q 510.8 78.3 509.1 78.4 L 509.1 76.3 Q 512.641 76.3 514.429 75.181 A 4.317 4.317 0 0 0 514.95 74.8 Q 516.526 73.449 516.683 69.909 A 18.297 18.297 0 0 0 516.7 69.1 L 516.7 12 A 20.211 20.211 0 0 0 516.573 9.655 Q 516.25 6.895 515.1 5.35 Q 513.542 3.257 509.331 3.202 A 17.559 17.559 0 0 0 509.1 3.2 L 509.1 1.1 A 67.314 67.314 0 0 0 514.547 1.395 A 60.756 60.756 0 0 0 515.3 1.4 Q 518.2 1.4 520.85 1.05 A 31.037 31.037 0 0 0 523.689 0.546 A 24.902 24.902 0 0 0 525.7 0 Z" id="12" vector-effect="non-scaling-stroke"/><path d="M 596.1 25.6 L 598.4 25.6 A 110.35 110.35 0 0 0 598.264 27.848 Q 598.163 29.844 598.1 32.25 A 224.715 224.715 0 0 0 598.056 34.341 Q 598.018 36.667 598.005 39.699 A 729.123 729.123 0 0 0 598 42.6 L 595.7 42.6 Q 595.1 38.9 593.65 35.4 A 14.398 14.398 0 0 0 590.403 30.538 A 13.937 13.937 0 0 0 589.4 29.65 A 9.852 9.852 0 0 0 585.416 27.757 Q 583.988 27.422 582.323 27.401 A 17.749 17.749 0 0 0 582.1 27.4 A 10.362 10.362 0 0 0 579.281 27.767 A 8.152 8.152 0 0 0 576.25 29.35 A 6.26 6.26 0 0 0 574.153 32.805 A 9.77 9.77 0 0 0 573.9 35.1 A 8.342 8.342 0 0 0 574.393 38.008 A 7.533 7.533 0 0 0 575.7 40.25 Q 577.5 42.4 580.4 44.25 Q 583.3 46.1 586.7 48.3 Q 592.4 52 596.4 55.8 A 12.667 12.667 0 0 1 600.292 63.83 A 17.535 17.535 0 0 1 600.4 65.8 A 14.583 14.583 0 0 1 599.973 69.414 A 11.062 11.062 0 0 1 598 73.5 A 14.937 14.937 0 0 1 592.108 78.047 A 17.679 17.679 0 0 1 591.75 78.2 A 21.077 21.077 0 0 1 585.277 79.723 A 25.124 25.124 0 0 1 583.3 79.8 A 24.673 24.673 0 0 1 580.393 79.635 A 21.123 21.123 0 0 1 579.15 79.45 Q 577.2 79.1 575.4 78.4 A 17.885 17.885 0 0 1 574.13 77.697 A 21.455 21.455 0 0 1 573.35 77.2 Q 572.3 76.5 571.3 75.7 Q 570.325 74.92 569.54 75.708 A 2.063 2.063 0 0 0 569.5 75.75 Q 568.7 76.6 568.3 79.1 L 566 79.1 A 138.748 138.748 0 0 0 566.136 76.503 Q 566.238 74.175 566.3 71.3 Q 566.389 67.185 566.399 60.67 A 1084.4 1084.4 0 0 0 566.4 59.1 L 568.7 59.1 A 70.879 70.879 0 0 0 569.427 63.732 Q 569.969 66.538 570.7 68.9 A 16.244 16.244 0 0 0 572.109 72.194 A 11.998 11.998 0 0 0 574.8 75.45 Q 577.6 77.8 582.6 77.8 Q 585.6 77.8 588.55 75.7 A 6.377 6.377 0 0 0 590.808 72.684 Q 591.5 70.867 591.5 68.3 A 9.836 9.836 0 0 0 590.797 64.527 A 9.147 9.147 0 0 0 588.3 61.1 A 49.724 49.724 0 0 0 585.419 58.775 Q 583.831 57.583 581.96 56.34 A 94.936 94.936 0 0 0 580.2 55.2 Q 576.6 52.9 573.45 50.6 A 22.313 22.313 0 0 1 569.981 47.491 A 19.032 19.032 0 0 1 568.35 45.4 A 11.329 11.329 0 0 1 566.591 40.849 A 15.134 15.134 0 0 1 566.4 38.4 A 16.179 16.179 0 0 1 566.688 35.257 Q 567.169 32.831 568.45 31.05 Q 570.5 28.2 573.9 26.85 A 19.455 19.455 0 0 1 580.684 25.506 A 22.252 22.252 0 0 1 581.2 25.5 A 20.546 20.546 0 0 1 584.252 25.715 Q 585.881 25.96 587.252 26.484 A 11.731 11.731 0 0 1 588 26.8 Q 590.8 28.1 592.1 29.2 Q 595.263 31.788 596.037 26.108 A 20.601 20.601 0 0 0 596.1 25.6 Z" id="14" vector-effect="non-scaling-stroke"/><path d="M 622.8 72.3 L 623.8 70.9 Q 625.2 73.7 627.85 75.6 Q 630.5 77.5 634.5 77.5 A 14.365 14.365 0 0 0 638.129 77.067 A 9.965 9.965 0 0 0 643.2 74 A 16.957 16.957 0 0 0 645.955 69.655 Q 646.959 67.415 647.55 64.65 A 55.474 55.474 0 0 0 648.561 57.673 A 71.869 71.869 0 0 0 648.8 51.7 A 81.222 81.222 0 0 0 648.646 46.543 Q 648.491 44.101 648.177 42.012 A 34.739 34.739 0 0 0 647.5 38.6 A 23.683 23.683 0 0 0 646.507 35.533 Q 645.873 33.973 645.063 32.763 A 10.666 10.666 0 0 0 643.6 31 A 8.858 8.858 0 0 0 637.318 28.501 A 11.466 11.466 0 0 0 637.2 28.5 A 11.529 11.529 0 0 0 630.224 30.874 A 16.279 16.279 0 0 0 628.3 32.55 A 15.279 15.279 0 0 0 625.355 36.888 Q 624.419 38.899 623.823 41.397 A 34.432 34.432 0 0 0 623.2 44.8 L 622 43.4 Q 623.1 34.9 628.05 30.2 Q 633 25.5 639.9 25.5 A 16.437 16.437 0 0 1 652.212 30.805 A 21.741 21.741 0 0 1 653.15 31.85 Q 657.38 36.871 658.266 45.486 A 47.133 47.133 0 0 1 658.5 50.3 Q 658.5 57.5 656.15 64.3 A 26.88 26.88 0 0 1 652.24 71.76 A 24.121 24.121 0 0 1 648.8 75.45 Q 643.8 79.8 635.6 79.8 A 16.876 16.876 0 0 1 631.356 79.288 A 13.519 13.519 0 0 1 627.45 77.6 A 13.982 13.982 0 0 1 625.058 75.704 A 9.82 9.82 0 0 1 622.8 72.3 Z M 623.9 25.8 L 623.9 87.2 A 11.212 11.212 0 0 0 624.069 89.228 Q 624.268 90.303 624.698 91.119 A 4.43 4.43 0 0 0 626.45 92.95 A 9.555 9.555 0 0 0 628.637 93.834 Q 630.688 94.4 633.5 94.4 L 633.5 96.5 Q 631.816 96.423 629.135 96.318 A 1691.753 1691.753 0 0 0 627.4 96.25 A 202.366 202.366 0 0 0 622.33 96.121 A 241.969 241.969 0 0 0 619.1 96.1 Q 616 96.1 612.95 96.25 Q 609.9 96.4 608.3 96.5 L 608.3 94.4 Q 611.9 94.4 613.4 93.1 A 3.542 3.542 0 0 0 614.307 91.818 Q 614.9 90.464 614.9 88.2 L 614.9 37.8 A 20.211 20.211 0 0 0 614.773 35.455 Q 614.45 32.695 613.3 31.15 Q 611.742 29.057 607.531 29.002 A 17.559 17.559 0 0 0 607.3 29 L 607.3 26.9 A 67.314 67.314 0 0 0 612.747 27.195 A 60.756 60.756 0 0 0 613.5 27.2 Q 616.4 27.2 619.05 26.85 A 31.037 31.037 0 0 0 621.889 26.346 A 24.902 24.902 0 0 0 623.9 25.8 Z" id="15" vector-effect="non-scaling-stroke"/><path d="M 709.1 47.5 L 673.8 47.5 L 673.7 45.6 L 699.5 45.6 A 39.541 39.541 0 0 0 699.533 43.987 Q 699.533 40.008 698.7 36.55 Q 697.7 32.4 695.55 29.9 A 6.914 6.914 0 0 0 690.524 27.415 A 8.868 8.868 0 0 0 690 27.4 Q 685.495 27.4 681.998 31.811 A 18.243 18.243 0 0 0 681.85 32 Q 678.3 36.6 677.6 46.6 L 677.9 47 Q 677.7 48.5 677.6 50.3 Q 677.5 52.1 677.5 53.9 Q 677.5 60.178 679.375 64.836 A 21.103 21.103 0 0 0 679.7 65.6 A 21.979 21.979 0 0 0 681.797 69.316 A 15.751 15.751 0 0 0 685.45 73.05 A 14.386 14.386 0 0 0 688.719 74.837 A 11.386 11.386 0 0 0 692.8 75.6 Q 697.3 75.6 701.1 73.4 A 12.727 12.727 0 0 0 704.348 70.649 Q 705.497 69.317 706.495 67.559 A 26.938 26.938 0 0 0 707.5 65.6 L 709.5 66.4 A 19.252 19.252 0 0 1 707.39 70.744 A 23.943 23.943 0 0 1 705.9 72.8 Q 703.4 75.9 699.6 77.85 A 17.509 17.509 0 0 1 694.098 79.569 A 22.783 22.783 0 0 1 690.8 79.8 A 26.268 26.268 0 0 1 684.696 79.122 A 20.138 20.138 0 0 1 678.45 76.5 Q 673.3 73.2 670.55 67.35 A 28.542 28.542 0 0 1 668.187 59.354 A 37.111 37.111 0 0 1 667.8 53.9 A 46.365 46.365 0 0 1 668.317 46.79 Q 669.003 42.371 670.6 38.75 A 24.854 24.854 0 0 1 674.068 33.011 A 20.633 20.633 0 0 1 678.5 28.95 A 20.136 20.136 0 0 1 688.215 25.593 A 25.268 25.268 0 0 1 690.4 25.5 A 23.24 23.24 0 0 1 696.17 26.176 A 16.025 16.025 0 0 1 704.15 30.85 Q 707.803 34.798 708.76 41.988 A 41.868 41.868 0 0 1 709.1 47.5 Z" id="16" vector-effect="non-scaling-stroke"/><path d="M 757 65.2 L 758.9 65.9 Q 757.9 69.1 755.6 72.35 Q 753.3 75.6 749.6 77.7 Q 745.9 79.8 740.5 79.8 Q 734.3 79.8 729.3 76.6 A 21.436 21.436 0 0 1 722.739 69.922 A 26.808 26.808 0 0 1 721.35 67.45 A 27.455 27.455 0 0 1 718.97 60.073 A 38.275 38.275 0 0 1 718.4 53.3 A 38.71 38.71 0 0 1 719.092 45.814 A 29.681 29.681 0 0 1 721.35 38.85 A 24.954 24.954 0 0 1 725.818 32.235 A 22.455 22.455 0 0 1 729.6 29.05 A 21.08 21.08 0 0 1 740.961 25.511 A 25.591 25.591 0 0 1 741.7 25.5 Q 744.9 25.5 747.9 26.3 A 18.464 18.464 0 0 1 752.221 28.038 A 16.813 16.813 0 0 1 753.3 28.7 A 13.077 13.077 0 0 1 755.215 30.205 A 9.847 9.847 0 0 1 756.8 32.15 Q 758 34.1 758 36.4 Q 758 39.1 756.5 40.55 A 5.111 5.111 0 0 1 753.271 41.977 A 6.843 6.843 0 0 1 752.7 42 Q 750.5 42 748.85 40.7 Q 747.2 39.4 747.2 37 Q 747.2 34.7 748.45 33.3 A 5.957 5.957 0 0 1 750.046 32.015 A 5.413 5.413 0 0 1 751.4 31.5 Q 750.561 29.99 748.632 28.902 A 11.973 11.973 0 0 0 747.85 28.5 Q 745.3 27.3 742.4 27.3 A 11.058 11.058 0 0 0 738.494 28.032 A 13.404 13.404 0 0 0 737.4 28.5 A 11.134 11.134 0 0 0 734.785 30.276 Q 733.752 31.204 732.8 32.45 A 15.89 15.89 0 0 0 731.226 35.014 Q 730.567 36.336 730.019 37.934 A 33.184 33.184 0 0 0 729.4 39.95 A 32.193 32.193 0 0 0 728.608 43.843 Q 728.306 45.933 728.184 48.346 A 68.222 68.222 0 0 0 728.1 51.8 A 62.973 62.973 0 0 0 728.315 57.187 Q 728.756 62.306 730.1 65.8 A 22.655 22.655 0 0 0 731.585 68.961 Q 732.514 70.577 733.627 71.758 A 10.884 10.884 0 0 0 735.35 73.25 Q 738.6 75.5 742.5 75.5 A 14.408 14.408 0 0 0 747.6 74.533 A 19.153 19.153 0 0 0 750.4 73.2 A 13.383 13.383 0 0 0 753.998 70.112 Q 755.207 68.662 756.229 66.759 A 26.84 26.84 0 0 0 757 65.2 Z" id="17" vector-effect="non-scaling-stroke"/><path d="M 781.9 25.8 L 781.9 69.1 Q 781.9 72.604 783.118 74.229 A 3.565 3.565 0 0 0 783.65 74.8 Q 785.245 76.167 788.792 76.288 A 20.755 20.755 0 0 0 789.5 76.3 L 789.5 78.4 Q 787.804 78.3 784.365 78.151 A 3336.726 3336.726 0 0 1 784.35 78.15 Q 780.9 78 777.4 78 Q 774 78 770.5 78.15 Q 767 78.3 765.3 78.4 L 765.3 76.3 Q 768.841 76.3 770.629 75.181 A 4.317 4.317 0 0 0 771.15 74.8 Q 772.726 73.449 772.883 69.909 A 18.297 18.297 0 0 0 772.9 69.1 L 772.9 37.8 A 20.211 20.211 0 0 0 772.773 35.455 Q 772.45 32.695 771.3 31.15 Q 769.742 29.057 765.531 29.002 A 17.559 17.559 0 0 0 765.3 29 L 765.3 26.9 A 67.314 67.314 0 0 0 770.747 27.195 A 60.756 60.756 0 0 0 771.5 27.2 Q 774.4 27.2 777.05 26.85 A 31.037 31.037 0 0 0 779.889 26.346 A 24.902 24.902 0 0 0 781.9 25.8 Z M 781.14 3.741 A 6.138 6.138 0 0 0 776.7 1.9 A 6.201 6.201 0 0 0 774.415 2.318 A 6.465 6.465 0 0 0 772.2 3.8 A 7.796 7.796 0 0 0 772.141 3.86 A 6.138 6.138 0 0 0 770.3 8.3 A 6.201 6.201 0 0 0 770.718 10.585 A 6.465 6.465 0 0 0 772.2 12.8 A 7.796 7.796 0 0 0 772.26 12.859 A 6.138 6.138 0 0 0 776.7 14.7 A 6.201 6.201 0 0 0 778.985 14.282 A 6.465 6.465 0 0 0 781.2 12.8 A 7.796 7.796 0 0 0 781.259 12.74 A 6.138 6.138 0 0 0 783.1 8.3 A 6.201 6.201 0 0 0 782.682 6.015 A 6.465 6.465 0 0 0 781.2 3.8 A 7.796 7.796 0 0 0 781.14 3.741 Z" id="18" vector-effect="non-scaling-stroke"/><path d="M 823.7 43.8 L 823.7 37.6 A 22.713 22.713 0 0 0 823.59 35.283 Q 823.347 32.925 822.571 31.422 A 6.381 6.381 0 0 0 822.45 31.2 A 7.244 7.244 0 0 0 821.197 29.556 A 5.785 5.785 0 0 0 819.1 28.25 A 12.75 12.75 0 0 0 816.28 27.605 A 16.231 16.231 0 0 0 814.4 27.5 A 20.389 20.389 0 0 0 811.308 27.747 A 26.027 26.027 0 0 0 809.05 28.2 A 8.359 8.359 0 0 0 806.139 29.511 A 7.841 7.841 0 0 0 804.5 31.1 A 5.814 5.814 0 0 1 807.419 32.696 A 7.358 7.358 0 0 1 807.8 33.1 A 5.567 5.567 0 0 1 809.089 35.865 A 7.729 7.729 0 0 1 809.2 37.2 A 6.288 6.288 0 0 1 808.975 38.926 A 4.664 4.664 0 0 1 807.6 41.15 A 5.525 5.525 0 0 1 804.658 42.515 A 7.611 7.611 0 0 1 803.5 42.6 A 7.158 7.158 0 0 1 801.858 42.424 Q 800.72 42.156 799.924 41.479 A 4.21 4.21 0 0 1 799.25 40.75 Q 797.9 38.9 797.9 36.6 A 8.468 8.468 0 0 1 798.079 34.808 Q 798.335 33.625 798.957 32.724 A 5.182 5.182 0 0 1 799.2 32.4 Q 800.5 30.8 802.5 29.4 A 16.818 16.818 0 0 1 804.726 28.108 Q 806.368 27.306 808.45 26.65 A 24.297 24.297 0 0 1 812.857 25.72 A 32.205 32.205 0 0 1 816.7 25.5 A 29.563 29.563 0 0 1 819.826 25.656 Q 821.371 25.821 822.696 26.159 A 15.659 15.659 0 0 1 823.7 26.45 Q 826.6 27.4 828.5 29.2 Q 831.1 31.6 831.9 35.05 Q 832.7 38.5 832.7 43.3 L 832.7 71.1 A 13.126 13.126 0 0 0 832.755 72.351 Q 832.876 73.605 833.259 74.39 A 3.167 3.167 0 0 0 833.4 74.65 A 2.285 2.285 0 0 0 834.879 75.699 Q 835.295 75.8 835.8 75.8 A 5.518 5.518 0 0 0 837.093 75.655 A 4.384 4.384 0 0 0 838.25 75.2 A 11.375 11.375 0 0 0 839.734 74.183 A 13.422 13.422 0 0 0 840.3 73.7 L 841.4 75.4 Q 839.3 77 837.4 78.05 A 7.455 7.455 0 0 1 835.642 78.73 Q 834.2 79.1 832.3 79.1 A 15.498 15.498 0 0 1 829.919 78.931 Q 826.675 78.425 825.4 76.4 A 11.101 11.101 0 0 1 823.742 71.274 A 13.688 13.688 0 0 1 823.7 70.2 A 24.509 24.509 0 0 1 821.427 73.398 Q 819.124 76.112 816.45 77.3 Q 812.4 79.1 808 79.1 A 20.64 20.64 0 0 1 804.625 78.843 Q 802.802 78.54 801.369 77.881 A 8.616 8.616 0 0 1 798.55 75.85 A 11.04 11.04 0 0 1 795.965 70.731 A 16.19 16.19 0 0 1 795.6 67.2 A 14.155 14.155 0 0 1 795.925 64.083 A 10.013 10.013 0 0 1 797.65 60.25 Q 799.7 57.5 802.9 55.75 Q 806.1 54 809.65 52.75 Q 813.2 51.5 816.4 50.3 A 28.612 28.612 0 0 0 818.81 49.275 Q 819.976 48.711 820.933 48.093 A 15.093 15.093 0 0 0 821.65 47.6 A 5.542 5.542 0 0 0 822.859 46.419 A 4.308 4.308 0 0 0 823.7 43.8 Z M 823.7 67.5 L 823.7 47.9 Q 822.288 49.971 819.414 51.244 A 15.416 15.416 0 0 1 819.05 51.4 Q 815.9 52.7 812.55 54.25 Q 809.2 55.8 806.8 58.45 A 8.635 8.635 0 0 0 804.963 61.781 Q 804.4 63.627 804.4 66 A 14.671 14.671 0 0 0 804.603 68.524 Q 804.843 69.896 805.367 70.978 A 6.652 6.652 0 0 0 806.7 72.85 A 7.801 7.801 0 0 0 812.241 75.099 A 10.16 10.16 0 0 0 812.4 75.1 Q 815.4 75.1 818.3 73.35 A 12.513 12.513 0 0 0 820.718 71.412 Q 822.274 69.838 823.7 67.5 Z" id="19" vector-effect="non-scaling-stroke"/><path d="M 860.3 0 L 860.3 69.1 Q 860.3 72.604 861.518 74.229 A 3.565 3.565 0 0 0 862.05 74.8 Q 863.645 76.167 867.192 76.288 A 20.755 20.755 0 0 0 867.9 76.3 L 867.9 78.4 Q 866.204 78.3 862.765 78.151 A 3336.726 3336.726 0 0 1 862.75 78.15 Q 859.3 78 855.8 78 Q 852.4 78 848.9 78.15 Q 845.4 78.3 843.7 78.4 L 843.7 76.3 Q 847.241 76.3 849.029 75.181 A 4.317 4.317 0 0 0 849.55 74.8 Q 851.126 73.449 851.283 69.909 A 18.297 18.297 0 0 0 851.3 69.1 L 851.3 12 A 20.211 20.211 0 0 0 851.173 9.655 Q 850.85 6.895 849.7 5.35 Q 848.142 3.257 843.931 3.202 A 17.559 17.559 0 0 0 843.7 3.2 L 843.7 1.1 A 67.314 67.314 0 0 0 849.147 1.395 A 60.756 60.756 0 0 0 849.9 1.4 Q 852.8 1.4 855.45 1.05 A 31.037 31.037 0 0 0 858.289 0.546 A 24.902 24.902 0 0 0 860.3 0 Z" id="20" vector-effect="non-scaling-stroke"/><path d="M 889.6 25.8 L 889.6 69.1 Q 889.6 72.604 890.818 74.229 A 3.565 3.565 0 0 0 891.35 74.8 Q 892.945 76.167 896.492 76.288 A 20.755 20.755 0 0 0 897.2 76.3 L 897.2 78.4 Q 895.504 78.3 892.065 78.151 A 3336.726 3336.726 0 0 1 892.05 78.15 Q 888.6 78 885.1 78 Q 881.7 78 878.2 78.15 Q 874.7 78.3 873 78.4 L 873 76.3 Q 876.541 76.3 878.329 75.181 A 4.317 4.317 0 0 0 878.85 74.8 Q 880.426 73.449 880.583 69.909 A 18.297 18.297 0 0 0 880.6 69.1 L 880.6 37.8 A 20.211 20.211 0 0 0 880.473 35.455 Q 880.15 32.695 879 31.15 Q 877.442 29.057 873.231 29.002 A 17.559 17.559 0 0 0 873 29 L 873 26.9 A 67.314 67.314 0 0 0 878.447 27.195 A 60.756 60.756 0 0 0 879.2 27.2 Q 882.1 27.2 884.75 26.85 A 31.037 31.037 0 0 0 887.589 26.346 A 24.902 24.902 0 0 0 889.6 25.8 Z M 888.84 3.741 A 6.138 6.138 0 0 0 884.4 1.9 A 6.201 6.201 0 0 0 882.115 2.318 A 6.465 6.465 0 0 0 879.9 3.8 A 7.796 7.796 0 0 0 879.841 3.86 A 6.138 6.138 0 0 0 878 8.3 A 6.201 6.201 0 0 0 878.418 10.585 A 6.465 6.465 0 0 0 879.9 12.8 A 7.796 7.796 0 0 0 879.96 12.859 A 6.138 6.138 0 0 0 884.4 14.7 A 6.201 6.201 0 0 0 886.685 14.282 A 6.465 6.465 0 0 0 888.9 12.8 A 7.796 7.796 0 0 0 888.959 12.74 A 6.138 6.138 0 0 0 890.8 8.3 A 6.201 6.201 0 0 0 890.382 6.015 A 6.465 6.465 0 0 0 888.9 3.8 A 7.796 7.796 0 0 0 888.84 3.741 Z" id="21" vector-effect="non-scaling-stroke"/><path d="M 935.1 25.6 L 937.4 25.6 A 110.35 110.35 0 0 0 937.264 27.848 Q 937.163 29.844 937.1 32.25 A 224.715 224.715 0 0 0 937.056 34.341 Q 937.018 36.667 937.005 39.699 A 729.123 729.123 0 0 0 937 42.6 L 934.7 42.6 Q 934.1 38.9 932.65 35.4 A 14.398 14.398 0 0 0 929.403 30.538 A 13.937 13.937 0 0 0 928.4 29.65 A 9.852 9.852 0 0 0 924.416 27.757 Q 922.988 27.422 921.323 27.401 A 17.749 17.749 0 0 0 921.1 27.4 A 10.362 10.362 0 0 0 918.281 27.767 A 8.152 8.152 0 0 0 915.25 29.35 A 6.26 6.26 0 0 0 913.153 32.805 A 9.77 9.77 0 0 0 912.9 35.1 A 8.342 8.342 0 0 0 913.393 38.008 A 7.533 7.533 0 0 0 914.7 40.25 Q 916.5 42.4 919.4 44.25 Q 922.3 46.1 925.7 48.3 Q 931.4 52 935.4 55.8 A 12.667 12.667 0 0 1 939.292 63.83 A 17.535 17.535 0 0 1 939.4 65.8 A 14.583 14.583 0 0 1 938.973 69.414 A 11.062 11.062 0 0 1 937 73.5 A 14.937 14.937 0 0 1 931.108 78.047 A 17.679 17.679 0 0 1 930.75 78.2 A 21.077 21.077 0 0 1 924.277 79.723 A 25.124 25.124 0 0 1 922.3 79.8 A 24.673 24.673 0 0 1 919.393 79.635 A 21.123 21.123 0 0 1 918.15 79.45 Q 916.2 79.1 914.4 78.4 A 17.885 17.885 0 0 1 913.13 77.697 A 21.455 21.455 0 0 1 912.35 77.2 Q 911.3 76.5 910.3 75.7 Q 909.325 74.92 908.54 75.708 A 2.063 2.063 0 0 0 908.5 75.75 Q 907.7 76.6 907.3 79.1 L 905 79.1 A 138.748 138.748 0 0 0 905.136 76.503 Q 905.238 74.175 905.3 71.3 Q 905.389 67.185 905.399 60.67 A 1084.4 1084.4 0 0 0 905.4 59.1 L 907.7 59.1 A 70.879 70.879 0 0 0 908.427 63.732 Q 908.969 66.538 909.7 68.9 A 16.244 16.244 0 0 0 911.109 72.194 A 11.998 11.998 0 0 0 913.8 75.45 Q 916.6 77.8 921.6 77.8 Q 924.6 77.8 927.55 75.7 A 6.377 6.377 0 0 0 929.808 72.684 Q 930.5 70.867 930.5 68.3 A 9.836 9.836 0 0 0 929.797 64.527 A 9.147 9.147 0 0 0 927.3 61.1 A 49.724 49.724 0 0 0 924.419 58.775 Q 922.831 57.583 920.96 56.34 A 94.936 94.936 0 0 0 919.2 55.2 Q 915.6 52.9 912.45 50.6 A 22.313 22.313 0 0 1 908.981 47.491 A 19.032 19.032 0 0 1 907.35 45.4 A 11.329 11.329 0 0 1 905.591 40.849 A 15.134 15.134 0 0 1 905.4 38.4 A 16.179 16.179 0 0 1 905.688 35.257 Q 906.169 32.831 907.45 31.05 Q 909.5 28.2 912.9 26.85 A 19.455 19.455 0 0 1 919.684 25.506 A 22.252 22.252 0 0 1 920.2 25.5 A 20.546 20.546 0 0 1 923.252 25.715 Q 924.881 25.96 926.252 26.484 A 11.731 11.731 0 0 1 927 26.8 Q 929.8 28.1 931.1 29.2 Q 934.263 31.788 935.037 26.108 A 20.601 20.601 0 0 0 935.1 25.6 Z" id="22" vector-effect="non-scaling-stroke"/><path d="M 963.1 10.3 L 963.1 27 L 977.9 27 L 977.9 29 L 963.1 29 L 963.1 67.7 A 20.661 20.661 0 0 0 963.206 69.875 Q 963.452 72.184 964.264 73.56 A 4.645 4.645 0 0 0 964.8 74.3 A 5.57 5.57 0 0 0 968.081 76.081 A 8.111 8.111 0 0 0 969.5 76.2 A 6.619 6.619 0 0 0 974.209 74.257 A 9.127 9.127 0 0 0 974.7 73.75 A 10.947 10.947 0 0 0 976.016 71.892 Q 977.178 69.873 978.14 66.738 A 45.24 45.24 0 0 0 978.5 65.5 L 980.5 66 A 26.438 26.438 0 0 1 979.134 71.042 A 20.273 20.273 0 0 1 976.55 75.8 A 9.491 9.491 0 0 1 970.723 79.475 A 15.043 15.043 0 0 1 967.5 79.8 A 22.414 22.414 0 0 1 965.211 79.69 Q 964.082 79.574 963.126 79.335 A 10.426 10.426 0 0 1 961.9 78.95 Q 959.7 78.1 958 76.5 Q 955.8 74.2 954.95 71 A 21.208 21.208 0 0 1 954.466 68.552 Q 954.283 67.265 954.192 65.752 A 54.037 54.037 0 0 1 954.1 62.5 L 954.1 29 L 944.5 29 L 944.5 27 L 954.1 27 L 954.1 11.7 A 54.889 54.889 0 0 0 958.03 11.405 A 49.013 49.013 0 0 0 958.9 11.3 A 21.082 21.082 0 0 0 961.49 10.803 A 17.204 17.204 0 0 0 963.1 10.3 Z" id="23" vector-effect="non-scaling-stroke"/><path style="fill: #6b4d5d" d="M 996.54 68.841 A 6.138 6.138 0 0 0 992.1 67 A 6.201 6.201 0 0 0 989.815 67.418 A 6.465 6.465 0 0 0 987.6 68.9 A 7.796 7.796 0 0 0 987.541 68.96 A 6.138 6.138 0 0 0 985.7 73.4 A 6.201 6.201 0 0 0 986.118 75.685 A 6.465 6.465 0 0 0 987.6 77.9 A 7.796 7.796 0 0 0 987.66 77.959 A 6.138 6.138 0 0 0 992.1 79.8 A 6.201 6.201 0 0 0 994.385 79.382 A 6.465 6.465 0 0 0 996.6 77.9 A 7.796 7.796 0 0 0 996.659 77.84 A 6.138 6.138 0 0 0 998.5 73.4 A 6.201 6.201 0 0 0 998.082 71.115 A 6.465 6.465 0 0 0 996.6 68.9 A 7.796 7.796 0 0 0 996.54 68.841 Z" id="24" vector-effect="non-scaling-stroke"/></g></svg>